<svg xmlns:svg="http://www.w3.org/2000/svg" xmlns="http://www.w3.org/2000/svg" width="31" height="32" viewBox="0 0 30.999998 32.000002" version="1.1">
  <g transform="translate(1.335144e-5,-2209.2498)">
    <rect width="30.845102" height="30.078362" x="0.07743448" y="2211.094" style="fill:#fff;stroke-width:0.15490201;stroke:#afafaf"/>
    <g transform="translate(0.37977439,-0.13629778)">
      <rect y="2220.9651" x="10.460093" height="2.1416714" width="2.1416714" fill="#e0e2e2"/>
      <rect y="2220.9705" x="14.036755" height="2.1416714" width="2.1416714" fill="#e0e2e2"/>
      <rect y="2220.9597" x="17.601263" height="2.1416714" width="2.1416714" fill="#e0e2e2"/>
      <rect y="2220.9597" x="21.206915" height="2.1416714" width="2.1416714" fill="#23bfe4"/>
      <rect y="2220.9597" x="24.780371" height="2.1416714" width="2.1416714" fill="#23bfe4"/>
      <rect y="2224.6843" x="3.2939374" height="2.1416714" width="2.1416714" fill="#23bfe4"/>
      <rect y="2224.6816" x="6.8782735" height="2.1416714" width="2.1416714" fill="#23bfe4"/>
      <rect y="2224.6858" x="10.461159" height="2.1416714" width="2.1416714" fill="#23bfe4"/>
      <rect y="2224.6824" x="14.047614" height="2.1416714" width="2.1416714" fill="#23bfe4"/>
      <rect y="2224.6826" x="17.625145" height="2.1416714" width="2.1416714" fill="#f05354"/>
      <rect y="2224.689" x="21.219078" height="2.1416714" width="2.1416714" fill="#f05354"/>
      <rect y="2224.6897" x="24.806204" height="2.1416714" width="2.1416714" fill="#f05354"/>
      <rect y="2228.4031" x="3.2943819" height="2.1416714" width="2.1416714" fill="#f05354"/>
      <rect y="2228.3977" x="6.8825135" height="2.1416714" width="2.1416714" fill="#f05354"/>
      <rect y="2228.407" x="10.4654" height="2.1416714" width="2.1416714" fill="#f05354"/>
      <rect y="2228.3972" x="14.042594" height="2.1416714" width="2.1416714" fill="#e0e2e2"/>
      <rect y="2228.3992" x="17.62693" height="2.1416714" width="2.1416714" fill="#e0e2e2"/>
      <rect y="2228.4011" x="21.217291" height="2.1416714" width="2.1416714" fill="#e0e2e2"/>
      <rect y="2228.3997" x="24.798727" height="2.1416714" width="2.1416714" fill="#e0e2e2"/>
      <rect y="2232.092" x="3.2925472" height="2.1416714" width="2.1416714" fill="#e0e2e2"/>
      <rect y="2232.094" x="6.880393" height="2.1416714" width="2.1416714" fill="#e0e2e2"/>
      <rect y="2232.092" x="10.461159" height="2.1416714" width="2.1416714" fill="#e0e2e2"/>
      <rect y="2232.092" x="14.047951" height="2.1416714" width="2.1416714" fill="#e0e2e2"/>
      <rect y="2232.094" x="17.625479" height="2.1416714" width="2.1416714" fill="#e0e2e2"/>
      <rect y="2232.0901" x="21.213387" height="2.1416714" width="2.1416714" fill="#e0e2e2"/>
      <rect y="2232.092" x="24.798727" height="2.1416714" width="2.1416714" fill="#e0e2e2"/>
      <rect y="2235.8054" x="3.2936025" height="2.1416714" width="2.1416714" fill="#e0e2e2"/>
      <rect y="2235.8037" x="6.8800578" height="2.1416714" width="2.1416714" fill="#e0e2e2"/>
      <rect y="2235.8018" x="10.457253" height="2.1416714" width="2.1416714" fill="#e0e2e2"/>
      <rect y="2235.8018" x="14.044044" height="2.1416714" width="2.1416714" fill="#e0e2e2"/>
      <rect y="2235.8057" x="17.626595" height="2.1416714" width="2.1416714" fill="#e0e2e2"/>
    </g>
    <g transform="matrix(1.0253608,0,0,1,-1.2824596e-6,0)">
      <rect ry="0" y="2210.7061" x="-1.4100869e-05" height="6.5956025" width="30.233263" fill="#ef4748"/>
      <rect y="2214.1973" x="3.3036876" height="1.23743" width="23.62586" fill="#d03132"/>
    </g>
    <g transform="matrix(0.01427781,0,0,0.01427781,0.3826926,2209.2497)">
      <rect width="54" height="188" x="118.50749" y="-222.44125" ry="18.55794" transform="scale(1,-1)" fill="#fabba0"/>
      <rect width="54" height="188" x="118.50796" y="-188.01172" ry="18.55794" transform="scale(1,-1)" fill="#3f4040"/>
      <rect width="54" height="188" x="215.55032" y="-222.44109" ry="18.55794" transform="scale(1,-1)" fill="#fabba0"/>
      <rect width="54" height="188" x="215.5508" y="-188.01208" ry="18.55794" transform="scale(1,-1)" fill="#3f4040"/>
      <g transform="translate(287.99904,-1.7196151e-4)">
        <rect width="54" height="188" x="118.50749" y="-222.44125" ry="18.55794" transform="scale(1,-1)" fill="#fabba0"/>
        <rect width="54" height="188" x="118.50796" y="-188.01172" ry="18.55794" transform="scale(1,-1)" fill="#3f4040"/>
        <rect width="54" height="188" x="215.55032" y="-222.44109" ry="18.55794" transform="scale(1,-1)" fill="#fabba0"/>
        <rect width="54" height="188" x="215.5508" y="-188.01208" ry="18.55794" transform="scale(1,-1)" fill="#3f4040"/>
      </g>
      <g transform="translate(576.27447,-1.7196151e-4)">
        <rect width="54" height="188" x="118.50749" y="-222.44125" ry="18.55794" transform="scale(1,-1)" fill="#fabba0"/>
        <rect width="54" height="188" x="118.50796" y="-188.01172" ry="18.55794" transform="scale(1,-1)" fill="#3f4040"/>
        <rect width="54" height="188" x="215.55032" y="-222.44109" ry="18.55794" transform="scale(1,-1)" fill="#fabba0"/>
        <rect width="54" height="188" x="215.5508" y="-188.01208" ry="18.55794" transform="scale(1,-1)" fill="#3f4040"/>
      </g>
      <g transform="translate(864.51031,-1.7196151e-4)">
        <rect width="54" height="188" x="118.50749" y="-222.44125" ry="18.55794" transform="scale(1,-1)" fill="#fabba0"/>
        <rect width="54" height="188" x="118.50796" y="-188.01172" ry="18.55794" transform="scale(1,-1)" fill="#3f4040"/>
        <rect width="54" height="188" x="215.55032" y="-222.44109" ry="18.55794" transform="scale(1,-1)" fill="#fabba0"/>
        <rect width="54" height="188" x="215.5508" y="-188.01208" ry="18.55794" transform="scale(1,-1)" fill="#3f4040"/>
      </g>
      <g transform="translate(1152.5466,-1.7196151e-4)">
        <rect width="54" height="188" x="118.50749" y="-222.44125" ry="18.55794" transform="scale(1,-1)" fill="#fabba0"/>
        <rect width="54" height="188" x="118.50796" y="-188.01172" ry="18.55794" transform="scale(1,-1)" fill="#3f4040"/>
        <rect width="54" height="188" x="215.55032" y="-222.44109" ry="18.55794" transform="scale(1,-1)" fill="#fabba0"/>
        <rect width="54" height="188" x="215.5508" y="-188.01208" ry="18.55794" transform="scale(1,-1)" fill="#3f4040"/>
      </g>
      <g transform="translate(1441.2195,-1.7196151e-4)">
        <rect width="54" height="188" x="118.50749" y="-222.44125" ry="18.55794" transform="scale(1,-1)" fill="#fabba0"/>
        <rect width="54" height="188" x="118.50796" y="-188.01172" ry="18.55794" transform="scale(1,-1)" fill="#3f4040"/>
        <rect width="54" height="188" x="215.55032" y="-222.44109" ry="18.55794" transform="scale(1,-1)" fill="#fabba0"/>
        <rect width="54" height="188" x="215.5508" y="-188.01208" ry="18.55794" transform="scale(1,-1)" fill="#3f4040"/>
      </g>
      <g transform="translate(1729.5344,-1.7196151e-4)">
        <rect width="54" height="188" x="118.50749" y="-222.44125" ry="18.55794" transform="scale(1,-1)" fill="#fabba0"/>
        <rect width="54" height="188" x="118.50796" y="-188.01172" ry="18.55794" transform="scale(1,-1)" fill="#3f4040"/>
        <rect width="54" height="188" x="215.55032" y="-222.44109" ry="18.55794" transform="scale(1,-1)" fill="#fabba0"/>
        <rect width="54" height="188" x="215.5508" y="-188.01208" ry="18.55794" transform="scale(1,-1)" fill="#3f4040"/>
      </g>
    </g>
  </g>
</svg>
