<?xml version="1.0" standalone="no"?>
<!DOCTYPE svg PUBLIC "-//W3C//DTD SVG 20010904//EN"
 "http://www.w3.org/TR/2001/REC-SVG-20010904/DTD/svg10.dtd">
<svg version="1.0" xmlns="http://www.w3.org/2000/svg"
 width="600.000000pt" height="600.000000pt" viewBox="0 0 600.000000 600.000000"
 preserveAspectRatio="xMidYMid meet">
<metadata>
Created by potrace 1.11, written by Peter Selinger 2001-2013
</metadata>
<g transform="translate(0.000000,600.000000) scale(0.100000,-0.100000)"
fill="#000000" stroke="none">
<path d="M2804 5490 c-722 -61 -1372 -420 -1804 -995 -585 -780 -659 -1848
-187 -2700 386 -698 1058 -1157 1862 -1271 164 -23 487 -23 650 0 300 43 546
117 785 236 602 299 1059 827 1269 1466 136 412 155 882 55 1332 -183 823
-802 1516 -1605 1797 -317 111 -705 162 -1025 135z m957 -1024 c167 -36 296
-149 367 -321 34 -82 42 -235 17 -321 -37 -128 -126 -248 -227 -308 -24 -14
-190 -90 -368 -168 -303 -132 -329 -142 -388 -142 -59 -1 -66 1 -88 29 -13 17
-40 68 -60 115 -20 47 -56 126 -79 175 -23 50 -79 176 -124 281 -122 287 -117
308 81 395 586 257 641 278 748 278 30 0 85 -6 121 -13z m-1281 -486 c22 -6
44 -22 57 -43 13 -18 92 -193 178 -390 137 -315 155 -363 155 -411 0 -49 -3
-57 -32 -82 -18 -15 -51 -35 -73 -44 -374 -163 -631 -271 -674 -284 -100 -29
-236 -18 -346 28 -65 28 -181 123 -219 180 -130 196 -110 470 47 642 78 86 96
95 557 296 169 74 279 116 305 117 6 1 26 -4 45 -9z m1073 -1103 c89 -38 85
-78 -38 -402 -297 -787 -300 -797 -334 -815 -31 -16 -93 -12 -128 10 -79 48
-189 232 -218 366 -25 109 -17 273 18 372 69 193 188 326 372 413 126 59 263
83 328 56z m435 -174 c40 -30 114 -128 149 -198 91 -179 102 -367 33 -557 -95
-261 -349 -448 -612 -452 -79 -1 -89 1 -113 24 -25 23 -27 29 -22 90 4 53 41
157 196 564 115 303 199 508 213 523 45 49 96 51 156 6z"/>
</g>
</svg>
