<?xml version="1.0" encoding="UTF-8" standalone="no"?>
<!-- Created with Inkscape (http://www.inkscape.org/) -->

<svg
   xmlns:dc="http://purl.org/dc/elements/1.1/"
   xmlns:cc="http://creativecommons.org/ns#"
   xmlns:rdf="http://www.w3.org/1999/02/22-rdf-syntax-ns#"
   xmlns:svg="http://www.w3.org/2000/svg"
   xmlns="http://www.w3.org/2000/svg"
   xmlns:sodipodi="http://sodipodi.sourceforge.net/DTD/sodipodi-0.dtd"
   xmlns:inkscape="http://www.inkscape.org/namespaces/inkscape"
   width="112.88889mm"
   height="112.88889mm"
   viewBox="0 0 399.99999 399.99999"
   id="svg4135"
   version="1.1"
   inkscape:version="0.91 r13725"
   sodipodi:docname="small_pill.svg">
  <sodipodi:namedview
     id="base"
     pagecolor="#ffffff"
     bordercolor="#666666"
     borderopacity="1.0"
     inkscape:pageopacity="0.0"
     inkscape:pageshadow="2"
     inkscape:zoom="0.68"
     inkscape:cx="-201.19506"
     inkscape:cy="208.93708"
     inkscape:document-units="px"
     inkscape:current-layer="layer1"
     showgrid="false"
     inkscape:window-width="1280"
     inkscape:window-height="699"
     inkscape:window-x="5"
     inkscape:window-y="46"
     inkscape:window-maximized="0"
     fit-margin-top="0"
     fit-margin-left="0"
     fit-margin-right="0"
     fit-margin-bottom="0"
     inkscape:snap-smooth-nodes="false"
     inkscape:object-nodes="false"
     inkscape:snap-midpoints="true"
     inkscape:showpageshadow="false" />
  <defs
     id="defs4137" />
  <metadata
     id="metadata4140">
    <rdf:RDF>
      <cc:Work
         rdf:about="">
        <dc:format>image/svg+xml</dc:format>
        <dc:type
           rdf:resource="http://purl.org/dc/dcmitype/StillImage" />
        <dc:title></dc:title>
      </cc:Work>
    </rdf:RDF>
  </metadata>
  <g
     inkscape:groupmode="layer"
     id="layer2"
     inkscape:label="Base" />
  <g
     id="layer1"
     inkscape:groupmode="layer"
     inkscape:label="Layer 1">
    <path
       style="fill:#000000;fill-opacity:1;fill-rule:nonzero;stroke:none;stroke-linejoin:miter;stroke-opacity:1"
       d="M 200 0 C 196.67734 0.00374572 193.37228 0.08894177 190.08594 0.25390625 C 186.76294 0.42071066 183.45942 0.66813563 180.17773 0.99609375 C 176.86847 1.3268073 173.58132 1.7396622 170.31836 2.2304688 C 167.03125 2.724909 163.76894 3.3000792 160.5332 3.953125 C 157.27633 4.6104408 154.04604 5.3460986 150.8457 6.1601562 C 147.6264 6.979037 144.43681 7.8761403 141.2793 8.8496094 C 138.10624 9.8278709 134.9654 10.883374 131.85938 12.013672 C 128.74074 13.148562 125.6577 14.358543 122.61133 15.642578 C 119.5536 16.931398 116.5329 18.295568 113.55273 19.730469 C 110.56426 21.169372 107.61663 22.680133 104.71094 24.261719 C 101.79859 25.846929 98.927881 27.502258 96.103516 29.226562 C 93.27427 30.953847 90.490008 32.750689 87.753906 34.613281 C 85.014505 36.478119 82.324757 38.410061 79.683594 40.40625 C 77.040443 42.403943 74.446134 44.464897 71.90625 46.589844 C 69.365558 48.715468 66.877785 50.903684 64.445312 53.152344 C 62.013377 55.40051 59.637236 57.709322 57.318359 60.076172 C 55.00102 62.441454 52.740568 64.866183 50.541016 67.345703 C 48.344163 69.822177 46.207307 72.353297 44.132812 74.939453 C 42.06217 77.52081 40.055232 80.155419 38.111328 82.841797 C 36.171903 85.521986 34.296748 88.254654 32.488281 91.035156 C 30.685152 93.807454 28.947477 96.628262 27.279297 99.496094 C 25.617024 102.35377 24.023565 105.25864 22.5 108.20703 C 20.982755 111.14319 19.535184 114.1225 18.160156 117.14453 C 16.791692 120.15212 15.494495 123.20046 14.271484 126.28906 C 2.1330603 155.06201 18.259486 174.02192 41.509766 174.27734 L 51.414062 174.27734 L 61.320312 174.27734 L 71.224609 174.27734 L 81.130859 174.27734 L 91.035156 174.27734 L 100.94141 174.27734 L 110.84766 174.27734 L 120.75391 174.27734 L 130.66016 174.27734 L 140.56445 174.27734 L 150.4707 174.27734 L 160.37695 174.27734 L 170.2832 174.27734 L 180.1875 174.27734 L 190.09375 174.27734 L 200 174.27734 L 209.90625 174.27734 L 219.8125 174.27734 L 229.7168 174.27734 L 239.62305 174.27734 L 249.5293 174.27734 L 259.43359 174.27734 L 269.33984 174.27734 L 279.24414 174.27734 L 289.15039 174.27734 L 299.05664 174.27734 L 308.96289 174.27734 L 318.86914 174.27734 L 328.77344 174.27734 L 338.67969 174.27734 L 348.58398 174.27734 L 358.49023 174.27734 C 381.74051 174.02192 397.86695 155.06201 385.72852 126.28906 C 384.50551 123.20046 383.2083 120.15212 381.83984 117.14453 C 380.46481 114.1225 379.01724 111.14319 377.5 108.20703 C 375.97643 105.25864 374.38297 102.35377 372.7207 99.496094 C 371.05252 96.628264 369.31484 93.807456 367.51172 91.035156 C 365.70325 88.254656 363.82809 85.521987 361.88867 82.841797 C 359.94476 80.155417 357.93784 77.520813 355.86719 74.939453 C 353.7927 72.353293 351.65583 69.822173 349.45898 67.345703 C 347.25943 64.866183 344.99898 62.441452 342.68164 60.076172 C 340.36276 57.709322 337.98663 55.400515 335.55469 53.152344 C 333.12222 50.903684 330.63444 48.715468 328.09375 46.589844 C 325.55386 44.464897 322.95956 42.403943 320.31641 40.40625 C 317.67525 38.410061 314.98549 36.478119 312.24609 34.613281 C 309.50999 32.750689 306.72573 30.953847 303.89648 29.226562 C 301.07212 27.502258 298.20141 25.846929 295.28906 24.261719 C 292.38337 22.680133 289.43574 21.169372 286.44727 19.730469 C 283.4671 18.295568 280.4464 16.931398 277.38867 15.642578 C 274.3423 14.358543 271.25926 13.148562 268.14062 12.013672 C 265.0346 10.883374 261.89377 9.8278714 258.7207 8.8496094 C 255.56319 7.8761404 252.3736 6.9790373 249.1543 6.1601562 C 245.95396 5.3460994 242.72368 4.610441 239.4668 3.953125 C 236.23107 3.300079 232.96875 2.7249086 229.68164 2.2304688 C 226.41868 1.7396618 223.13153 1.3268068 219.82227 0.99609375 C 216.54058 0.66813575 213.23706 0.42071125 209.91406 0.25390625 C 206.62772 0.08894025 203.32266 0.0037 200 0 z M 41.509766 225.72266 C 18.259486 225.97808 2.1330595 244.93799 14.271484 273.71094 C 15.494494 276.79954 16.791696 279.84788 18.160156 282.85547 C 19.535186 285.8775 20.98276 288.85681 22.5 291.79297 C 24.02357 294.74136 25.617027 297.64623 27.279297 300.50391 C 28.947477 303.37174 30.685151 306.19254 32.488281 308.96484 C 34.296741 311.74534 36.171908 314.47802 38.111328 317.1582 C 40.055238 319.84458 42.062162 322.47919 44.132812 325.06055 C 46.207303 327.6467 48.344166 330.17782 50.541016 332.6543 C 52.740566 335.13382 55.001019 337.55855 57.318359 339.92383 C 59.637239 342.29068 62.013373 344.59949 64.445312 346.84766 C 66.877782 349.09632 69.36556 351.28453 71.90625 353.41016 C 74.44614 355.5351 77.040444 357.59606 79.683594 359.59375 C 82.324754 361.58994 85.014506 363.52188 87.753906 365.38672 C 90.490006 367.24931 93.274266 369.04615 96.103516 370.77344 C 98.927886 372.49774 101.79859 374.15307 104.71094 375.73828 C 107.61663 377.31987 110.56426 378.83063 113.55273 380.26953 C 116.5329 381.70443 119.5536 383.0686 122.61133 384.35742 C 125.6577 385.64146 128.74074 386.85144 131.85938 387.98633 C 134.9654 389.11663 138.10624 390.17213 141.2793 391.15039 C 144.43681 392.12386 147.6264 393.02096 150.8457 393.83984 C 154.04604 394.6539 157.27633 395.38957 160.5332 396.04688 C 163.76894 396.69992 167.03125 397.27509 170.31836 397.76953 C 173.58132 398.26034 176.86847 398.67319 180.17773 399.00391 C 183.45942 399.33186 186.76294 399.57929 190.08594 399.74609 C 193.37228 399.9111 196.67734 399.996 200 400 C 203.32266 399.9963 206.62772 399.91106 209.91406 399.74609 C 213.23706 399.57929 216.54058 399.33186 219.82227 399.00391 C 223.13153 398.67319 226.41868 398.26034 229.68164 397.76953 C 232.96875 397.27509 236.23107 396.69993 239.4668 396.04688 C 242.72368 395.38957 245.95396 394.6539 249.1543 393.83984 C 252.3736 393.02096 255.56319 392.12386 258.7207 391.15039 C 261.89377 390.17213 265.0346 389.11663 268.14062 387.98633 C 271.25926 386.85144 274.3423 385.64146 277.38867 384.35742 C 280.4464 383.0686 283.4671 381.70443 286.44727 380.26953 C 289.43574 378.83063 292.38337 377.31987 295.28906 375.73828 C 298.20141 374.15307 301.07212 372.49774 303.89648 370.77344 C 306.72573 369.04615 309.50999 367.24931 312.24609 365.38672 C 314.98549 363.52188 317.67525 361.58994 320.31641 359.59375 C 322.95956 357.59606 325.55386 355.5351 328.09375 353.41016 C 330.63444 351.28453 333.12222 349.09632 335.55469 346.84766 C 337.98663 344.59948 340.36276 342.29068 342.68164 339.92383 C 344.99898 337.55855 347.25943 335.13382 349.45898 332.6543 C 351.65583 330.17783 353.7927 327.64671 355.86719 325.06055 C 357.93784 322.47919 359.94476 319.84458 361.88867 317.1582 C 363.82809 314.47801 365.70325 311.74534 367.51172 308.96484 C 369.31484 306.19254 371.05252 303.37174 372.7207 300.50391 C 374.38297 297.64623 375.97643 294.74136 377.5 291.79297 C 379.01724 288.85681 380.46481 285.8775 381.83984 282.85547 C 383.2083 279.84788 384.50551 276.79954 385.72852 273.71094 C 397.86695 244.93799 381.74051 225.97808 358.49023 225.72266 L 348.58398 225.72266 L 338.67969 225.72266 L 328.77344 225.72266 L 318.86914 225.72266 L 308.96289 225.72266 L 299.05664 225.72266 L 289.15039 225.72266 L 279.24414 225.72266 L 269.33984 225.72266 L 259.43359 225.72266 L 249.5293 225.72266 L 239.62305 225.72266 L 229.7168 225.72266 L 219.8125 225.72266 L 209.90625 225.72266 L 200 225.72266 L 190.09375 225.72266 L 180.1875 225.72266 L 170.2832 225.72266 L 160.37695 225.72266 L 150.4707 225.72266 L 140.56445 225.72266 L 130.66016 225.72266 L 120.75391 225.72266 L 110.84766 225.72266 L 100.94141 225.72266 L 91.035156 225.72266 L 81.130859 225.72266 L 71.224609 225.72266 L 61.320312 225.72266 L 51.414062 225.72266 L 41.509766 225.72266 z "
       id="path4735" />
  </g>
</svg>
