<?xml version="1.0" encoding="UTF-8" standalone="no"?>
<!-- Created with Inkscape (http://www.inkscape.org/) -->

<svg
   xmlns:dc="http://purl.org/dc/elements/1.1/"
   xmlns:cc="http://creativecommons.org/ns#"
   xmlns:rdf="http://www.w3.org/1999/02/22-rdf-syntax-ns#"
   xmlns:svg="http://www.w3.org/2000/svg"
   xmlns="http://www.w3.org/2000/svg"
   xmlns:sodipodi="http://sodipodi.sourceforge.net/DTD/sodipodi-0.dtd"
   xmlns:inkscape="http://www.inkscape.org/namespaces/inkscape"
   width="1038.7668"
   height="379.03702"
   viewBox="0 0 1038.7668 379.03701"
   id="svg5617"
   version="1.1"
   inkscape:version="0.91 r13725"
   sodipodi:docname="large_pill.svg">
  <defs
     id="defs5619" />
  <sodipodi:namedview
     id="base"
     pagecolor="#ffffff"
     bordercolor="#666666"
     borderopacity="1.0"
     inkscape:pageopacity="0.0"
     inkscape:pageshadow="2"
     inkscape:zoom="0.66"
     inkscape:cx="463.19754"
     inkscape:cy="243.25306"
     inkscape:document-units="px"
     inkscape:current-layer="layer1"
     showgrid="false"
     units="px"
     inkscape:showpageshadow="false"
     fit-margin-top="0"
     fit-margin-left="0"
     fit-margin-right="0"
     fit-margin-bottom="0"
     showborder="true"
     inkscape:window-width="1280"
     inkscape:window-height="699"
     inkscape:window-x="0"
     inkscape:window-y="61"
     inkscape:window-maximized="0" />
  <metadata
     id="metadata5622">
    <rdf:RDF>
      <cc:Work
         rdf:about="">
        <dc:format>image/svg+xml</dc:format>
        <dc:type
           rdf:resource="http://purl.org/dc/dcmitype/StillImage" />
        <dc:title></dc:title>
      </cc:Work>
    </rdf:RDF>
  </metadata>
  <g
     inkscape:label="Layer 1"
     inkscape:groupmode="layer"
     id="layer1"
     transform="translate(-567.82141,-636.50842)">
    <path
       id="path6412-0"
       style="fill:#000000;fill-opacity:1;fill-rule:nonzero;stroke:none;stroke-linejoin:miter;stroke-opacity:1"
       d="m 1416.7113,636.50842 c 105.1921,0 189.877,84.68483 189.877,189.87695 0,105.19214 -84.6849,189.87893 -189.877,189.87893 l -265.9238,0 0,-9.0723 c 2.2691,-1.0662 4.5223,-2.1595 6.7422,-3.3066 2.9484,-1.5236 5.8533,-3.1172 8.7109,-4.77932 2.8679,-1.6682 5.6887,-3.40589 8.4609,-5.20899 2.7805,-1.8085 5.5132,-3.68354 8.1934,-5.62305 2.6864,-1.94389 5.321,-3.95078 7.9023,-6.02148 2.5862,-2.0744 5.1173,-4.2113 7.5938,-6.4082 2.4795,-2.1995 4.9042,-4.46005 7.2695,-6.77735 2.3669,-2.3189 4.6757,-4.69495 6.9238,-7.12695 2.2487,-2.4324 4.4369,-4.92024 6.5625,-7.46094 2.125,-2.5399 4.186,-5.13424 6.1836,-7.77734 1.9962,-2.6412 3.9282,-5.33091 5.793,-8.07031 1.8626,-2.7361 3.6594,-5.52031 5.3867,-8.34961 1.7243,-2.8243 3.3797,-5.69502 4.9649,-8.60742 1.5816,-2.9057 3.0924,-5.85333 4.5312,-8.8418 1.4349,-2.9801 2.7991,-6.00079 4.0879,-9.0586 1.2841,-3.04628 2.494,-6.12944 3.6289,-9.24804 1.1303,-3.106 2.1859,-6.24692 3.1641,-9.41992 0.9735,-3.1576 1.8705,-6.34711 2.6894,-9.56641 0.814,-3.2004 1.5498,-6.4307 2.2071,-9.6875 0.6531,-3.2358 1.2281,-6.49806 1.7226,-9.78516 0.4908,-3.263 0.9037,-6.55007 1.2344,-9.85937 0.328,-3.2817 0.5754,-6.5852 0.7422,-9.9082 0.1649,-3.2863 0.2539,-6.59147 0.2539,-9.91407 0,-3.3227 -0.089,-6.62776 -0.2539,-9.91406 -0.1668,-3.323 -0.4142,-6.6265 -0.7422,-9.9082 -0.3307,-3.3093 -0.7436,-6.59638 -1.2344,-9.85938 -0.4945,-3.2871 -1.0696,-6.54945 -1.7226,-9.78515 -0.6573,-3.2569 -1.3931,-6.4872 -2.2071,-9.6875 -0.8189,-3.2193 -1.7159,-6.40891 -2.6894,-9.56641 -0.9782,-3.1731 -2.0338,-6.31382 -3.1641,-9.41992 -1.1349,-3.1186 -2.3448,-6.20165 -3.6289,-9.24805 -1.2888,-3.0577 -2.653,-6.07839 -4.0879,-9.05859 -1.4388,-2.9885 -2.9496,-5.9361 -4.5312,-8.8418 -1.5852,-2.9124 -3.2406,-5.78312 -4.9649,-8.60742 -1.7273,-2.8293 -3.5241,-5.61351 -5.3867,-8.34961 -1.8648,-2.7394 -3.7968,-5.42911 -5.793,-8.07031 -1.9976,-2.6431 -4.0586,-5.23744 -6.1836,-7.77734 -2.1256,-2.5407 -4.3138,-5.02854 -6.5625,-7.46094 -2.2481,-2.432 -4.5569,-4.80805 -6.9238,-7.12696 -2.3653,-2.3173 -4.79,-4.57784 -7.2695,-6.77734 -2.4765,-2.1969 -5.0076,-4.3337 -7.5938,-6.4082 -2.5813,-2.0707 -5.2159,-4.07759 -7.9023,-6.02149 -2.6802,-1.9394 -5.4129,-3.81454 -8.1934,-5.62304 -2.7722,-1.8031 -5.593,-3.54089 -8.4609,-5.20899 -2.8576,-1.6623 -5.7625,-3.25579 -8.7109,-4.77929 -2.2199,-1.14718 -4.4731,-2.24043 -6.7422,-3.30664 l 0,-9.07032 265.9238,0 z m -295.1427,31.38748 c 0.2554,-23.25028 19.2154,-39.37671 47.9884,-27.23829 3.0886,1.22301 6.1368,2.52022 9.1444,3.88868 3.0221,1.37503 6.0014,2.8226 8.9375,4.33984 2.9485,1.52357 5.8534,3.11703 8.7111,4.7793 2.8678,1.66818 5.6886,3.40585 8.4609,5.20898 2.7804,1.80846 5.5131,3.68363 8.1933,5.62305 2.6863,1.94391 5.3209,3.95083 7.9023,6.02148 2.5862,2.07449 5.1173,4.21136 7.5938,6.40821 2.4795,2.19955 4.9042,4.46 7.2695,6.77734 2.3668,2.31888 4.6756,4.69501 6.9238,7.12695 2.2487,2.43247 4.4369,4.92025 6.5625,7.46094 2.125,2.53989 4.1859,5.13419 6.1836,7.77734 1.9962,2.64116 3.9281,5.33092 5.7929,8.07032 1.8626,2.7361 3.6595,5.52036 5.3868,8.34961 1.7243,2.82437 3.3796,5.69507 4.9648,8.60742 1.5816,2.90569 3.0924,5.85332 4.5312,8.84179 1.4349,2.98017 2.7991,6.00087 4.0879,9.0586 1.2841,3.04637 2.4941,6.12941 3.629,9.24805 1.1303,3.10602 2.1858,6.24686 3.164,9.41992 0.9735,3.15751 1.8706,6.3471 2.6895,9.5664 0.814,3.20034 1.5497,6.43063 2.207,9.6875 0.653,3.23574 1.2282,6.49805 1.7227,9.78516 0.4908,3.26296 0.9036,6.55011 1.2343,9.85937 0.328,3.28169 0.5754,6.58521 0.7422,9.90821 0.165,3.28634 0.2499,6.5914 0.2539,9.91406 0,3.32266 -0.089,6.62772 -0.2539,9.91406 -0.1668,3.323 -0.4142,6.62652 -0.7422,9.90821 -0.3307,3.30926 -0.7435,6.59641 -1.2343,9.85937 -0.4945,3.28711 -1.0696,6.54943 -1.7227,9.78516 -0.6573,3.25688 -1.393,6.48716 -2.207,9.6875 -0.8189,3.2193 -1.716,6.40889 -2.6895,9.5664 -0.9782,3.17307 -2.0337,6.3139 -3.164,9.41992 -1.1349,3.11864 -2.3449,6.20168 -3.629,9.24805 -1.2888,3.05773 -2.653,6.07843 -4.0879,9.0586 -1.4388,2.98847 -2.9496,5.9361 -4.5312,8.84179 -1.5852,2.91235 -3.2405,5.78306 -4.9648,8.60742 -1.7273,2.82925 -3.5242,5.61351 -5.3868,8.34961 -1.8648,2.7394 -3.7967,5.42916 -5.7929,8.07032 -1.9977,2.64315 -4.0586,5.23745 -6.1836,7.77734 -2.1256,2.54069 -4.3138,5.02847 -6.5625,7.46094 -2.2482,2.43194 -4.557,4.80807 -6.9238,7.12695 -2.3653,2.31734 -4.79,4.57779 -7.2695,6.77734 -2.4765,2.19685 -5.0076,4.33372 -7.5938,6.40821 -2.5814,2.07065 -5.216,4.07757 -7.9023,6.02148 -2.6802,1.93942 -5.4129,3.81458 -8.1933,5.62305 -2.7723,1.80312 -5.5931,3.5408 -8.4609,5.20897 -2.8577,1.66228 -5.7626,3.25568 -8.7111,4.77928 -2.9361,1.5172 -5.9154,2.9648 -8.9375,4.3398 -3.0076,1.3685 -6.0558,2.6657 -9.1444,3.8887 -28.773,12.1385 -47.733,-3.988 -47.9884,-27.23824 l 0,-9.90625 0,-9.90429 0,-9.90625 0,-9.9043 0,-9.90625 0,-9.90625 0,-9.90625 0,-9.90625 0,-9.9043 0,-9.90625 0,-9.90429 0,-9.90625 0,-9.90625 0,-9.9043 0,-9.90625 0,-9.90625 0,-9.90625 0,-9.90625 0,-9.9043 0,-9.90625 0,-9.90625 0,-9.90625 0,-9.90429 0,-9.90625 0,-9.90625 0,-9.90625 0,-9.90625 0,-9.9043 0,-9.90625 0,-9.9043 0,-9.90625 0,-9.90429 z M 757.69836,636.50842 c -105.19214,0 -189.87695,84.68482 -189.87695,189.87695 0,105.19214 84.68481,189.87893 189.87695,189.87893 l 265.92384,0 0,-9.0723 c -2.2691,-1.0662 -4.5222,-2.1595 -6.7422,-3.3066 -2.9484,-1.5236 -5.8533,-3.1172 -8.7109,-4.77932 -2.8679,-1.6682 -5.6887,-3.40589 -8.46097,-5.20899 -2.7805,-1.8085 -5.51316,-3.68354 -8.19336,-5.62305 -2.6864,-1.94389 -5.32104,-3.95078 -7.90234,-6.02148 -2.58618,-2.0744 -5.11728,-4.2113 -7.59375,-6.4082 -2.47952,-2.1995 -4.90426,-4.46005 -7.26954,-6.77735 -2.36685,-2.3189 -4.67564,-4.69495 -6.92382,-7.12695 -2.24866,-2.4324 -4.43687,-4.92024 -6.5625,-7.46094 -2.12494,-2.5399 -4.18591,-5.13424 -6.1836,-7.77734 -1.99619,-2.6412 -3.92817,-5.33091 -5.79297,-8.07031 -1.8626,-2.7361 -3.65941,-5.52031 -5.38672,-8.34961 -1.72429,-2.8243 -3.37964,-5.69502 -4.96484,-8.60742 -1.5816,-2.9057 -3.09245,-5.85333 -4.53125,-8.8418 -1.4349,-2.9801 -2.79909,-6.00079 -4.08789,-9.0586 -1.2841,-3.04628 -2.49401,-6.12944 -3.62891,-9.24804 -1.1303,-3.106 -2.18586,-6.24692 -3.16406,-9.41992 -0.9735,-3.1576 -1.87055,-6.34711 -2.68945,-9.56641 -0.814,-3.2004 -1.54973,-6.4307 -2.20703,-9.6875 -0.6531,-3.2358 -1.22816,-6.49806 -1.72266,-9.78516 -0.4908,-3.263 -0.90367,-6.55007 -1.23437,-9.85937 -0.328,-3.2817 -0.57539,-6.5852 -0.74219,-9.9082 -0.1649,-3.2863 -0.25391,-6.59147 -0.25391,-9.91407 0.004,-3.3227 0.0889,-6.62776 0.25391,-9.91406 0.1668,-3.323 0.41419,-6.6265 0.74219,-9.9082 0.3307,-3.3093 0.74357,-6.59638 1.23437,-9.85938 0.4945,-3.2871 1.06966,-6.54945 1.72266,-9.78515 0.6573,-3.2569 1.39303,-6.4872 2.20703,-9.6875 0.8189,-3.2193 1.71595,-6.40891 2.68945,-9.56641 0.9782,-3.1731 2.03376,-6.31382 3.16406,-9.41992 1.1349,-3.1186 2.34481,-6.20165 3.62891,-9.24805 1.2888,-3.0577 2.65299,-6.07839 4.08789,-9.05859 1.4388,-2.9885 2.94965,-5.9361 4.53125,-8.8418 1.5852,-2.9124 3.24055,-5.78312 4.96484,-8.60742 1.72731,-2.8293 3.52412,-5.61351 5.38672,-8.34961 1.8648,-2.7394 3.79678,-5.42911 5.79297,-8.07031 1.99769,-2.6431 4.05866,-5.23745 6.1836,-7.77735 2.12563,-2.5407 4.31384,-5.02853 6.5625,-7.46093 2.24817,-2.432 4.55697,-4.80806 6.92382,-7.12696 2.36528,-2.3173 4.79002,-4.57784 7.26954,-6.77734 2.47648,-2.1969 5.00758,-4.3337 7.59375,-6.4082 2.5813,-2.0707 5.21594,-4.07759 7.90234,-6.02149 2.6802,-1.9394 5.41286,-3.81455 8.19336,-5.62305 2.77227,-1.8031 5.59307,-3.54088 8.46097,-5.20898 2.8576,-1.6623 5.7625,-3.2558 8.7109,-4.7793 2.22,-1.14717 4.4731,-2.24042 6.7422,-3.30664 l 0,-9.07031 -265.92384,0 z M 1052.841,667.8959 c -0.2554,-23.25028 -19.2153,-39.37671 -47.9883,-27.23829 -3.0886,1.22301 -6.13686,2.52022 -9.14446,3.88868 -3.0221,1.37503 -6.0014,2.8226 -8.9375,4.33984 -2.94844,1.52357 -5.85334,3.11703 -8.71104,4.7793 -2.8678,1.66818 -5.6886,3.40585 -8.4609,5.20898 -2.7804,1.80846 -5.5131,3.68363 -8.19329,5.62305 -2.68638,1.94391 -5.32099,3.95083 -7.90235,6.02148 -2.58615,2.07449 -5.11727,4.21136 -7.59375,6.40821 -2.47952,2.19955 -4.90425,4.46 -7.26953,6.77734 -2.36685,2.31888 -4.67566,4.69501 -6.92383,7.12695 -2.24866,2.43247 -4.43687,4.92025 -6.5625,7.46094 -2.12494,2.53989 -4.1859,5.13419 -6.18359,7.77734 -1.99619,2.64116 -3.92813,5.33092 -5.79293,8.07032 -1.8626,2.7361 -3.6595,5.52036 -5.3868,8.34961 -1.7243,2.82437 -3.3796,5.69507 -4.9648,8.60742 -1.5816,2.90569 -3.0924,5.85332 -4.5312,8.84179 -1.4349,2.98017 -2.7991,6.00087 -4.0879,9.0586 -1.2841,3.04637 -2.4941,6.12941 -3.629,9.24805 -1.1303,3.10602 -2.1858,6.24686 -3.164,9.41992 -0.9735,3.15751 -1.8706,6.3471 -2.6895,9.5664 -0.814,3.20034 -1.5497,6.43063 -2.207,9.6875 -0.653,3.23574 -1.2282,6.49805 -1.7227,9.78516 -0.4908,3.26296 -0.9036,6.55011 -1.2343,9.85937 -0.328,3.28169 -0.5754,6.58521 -0.7422,9.90821 -0.165,3.28634 -0.2499,6.5914 -0.2539,9.91406 0,3.32266 0.089,6.62772 0.2539,9.91406 0.1668,3.323 0.4142,6.62652 0.7422,9.90821 0.3307,3.30926 0.7435,6.59641 1.2343,9.85937 0.4945,3.28711 1.0696,6.54943 1.7227,9.78516 0.6573,3.25688 1.393,6.48716 2.207,9.6875 0.8189,3.2193 1.716,6.40889 2.6895,9.5664 0.9782,3.17307 2.0337,6.3139 3.164,9.41992 1.1349,3.11864 2.3449,6.20168 3.629,9.24805 1.2888,3.05773 2.653,6.07843 4.0879,9.0586 1.4388,2.98847 2.9496,5.9361 4.5312,8.84179 1.5852,2.91235 3.2405,5.78306 4.9648,8.60742 1.7273,2.82925 3.5242,5.61351 5.3868,8.34961 1.8648,2.7394 3.79674,5.42916 5.79293,8.07032 1.99769,2.64315 4.05865,5.23745 6.18359,7.77734 2.12563,2.54069 4.31384,5.02847 6.5625,7.46094 2.24818,2.43194 4.55698,4.80807 6.92383,7.12695 2.36528,2.31734 4.79001,4.57779 7.26953,6.77734 2.47647,2.19685 5.00759,4.33372 7.59375,6.40821 2.58136,2.07065 5.21597,4.07757 7.90235,6.02148 2.68019,1.93942 5.41289,3.81458 8.19329,5.62305 2.7723,1.80312 5.5931,3.5408 8.4609,5.20897 2.8577,1.66228 5.7626,3.25568 8.71104,4.77928 2.9361,1.5172 5.9154,2.9648 8.9375,4.3398 3.0076,1.3685 6.05586,2.6657 9.14446,3.8887 28.773,12.1385 47.7329,-3.988 47.9883,-27.23824 l 0,-9.90625 0,-9.90429 0,-9.90625 0,-9.9043 0,-9.90625 0,-9.90625 0,-9.90625 0,-9.90625 0,-9.9043 0,-9.90625 0,-9.90429 0,-9.90625 0,-9.90625 0,-9.9043 0,-9.90625 0,-9.90625 0,-9.90625 0,-9.90625 0,-9.9043 0,-9.90625 0,-9.90625 0,-9.90625 0,-9.90429 0,-9.90625 0,-9.90625 0,-9.90625 0,-9.90625 0,-9.9043 0,-9.90625 0,-9.9043 0,-9.90625 0,-9.90429 z" />
  </g>
</svg>
