<?xml version="1.0" encoding="UTF-8" standalone="no"?>
<!-- Created with Inkscape (http://www.inkscape.org/) -->

<svg
   xmlns:dc="http://purl.org/dc/elements/1.1/"
   xmlns:cc="http://creativecommons.org/ns#"
   xmlns:rdf="http://www.w3.org/1999/02/22-rdf-syntax-ns#"
   xmlns:svg="http://www.w3.org/2000/svg"
   xmlns="http://www.w3.org/2000/svg"
   xmlns:sodipodi="http://sodipodi.sourceforge.net/DTD/sodipodi-0.dtd"
   xmlns:inkscape="http://www.inkscape.org/namespaces/inkscape"
   width="32"
   height="32"
   viewBox="0 0 32 32"
   id="svg3445"
   version="1.1"
   inkscape:version="0.91 r13725"
   sodipodi:docname="logo_color copy.svg">
  <defs
     id="defs3447" />
  <sodipodi:namedview
     id="base"
     pagecolor="#ffffff"
     bordercolor="#666666"
     borderopacity="1.0"
     inkscape:pageopacity="0.0"
     inkscape:pageshadow="2"
     inkscape:zoom="15.53125"
     inkscape:cx="16"
     inkscape:cy="16"
     inkscape:document-units="px"
     inkscape:current-layer="layer1"
     showgrid="false"
     units="px"
     inkscape:snap-global="true"
     fit-margin-top="0"
     fit-margin-left="0"
     fit-margin-right="0"
     fit-margin-bottom="0"
     showborder="true"
     inkscape:window-width="1280"
     inkscape:window-height="699"
     inkscape:window-x="38"
     inkscape:window-y="20"
     inkscape:window-maximized="0"
     inkscape:showpageshadow="false" />
  <metadata
     id="metadata3450">
    <rdf:RDF>
      <cc:Work
         rdf:about="">
        <dc:format>image/svg+xml</dc:format>
        <dc:type
           rdf:resource="http://purl.org/dc/dcmitype/StillImage" />
        <dc:title />
      </cc:Work>
    </rdf:RDF>
  </metadata>
  <g
     inkscape:groupmode="layer"
     id="layer3"
     inkscape:label="Light Grey"
     style="display:inline">
    <circle
       style="display:inline;fill:#b2b7bb;fill-opacity:1;fill-rule:evenodd;stroke:none;stroke-width:1.52380955;stroke-linejoin:round;stroke-miterlimit:4;stroke-dasharray:none;stroke-opacity:1"
       id="path4265"
       cx="16"
       cy="16"
       r="16" />
  </g>
  <g
     inkscape:groupmode="layer"
     id="layer2"
     inkscape:label="Dark Grey">
    <path
       style="display:inline;fill:#727679;fill-opacity:1;fill-rule:nonzero;stroke:none;stroke-linejoin:miter;stroke-opacity:1"
       d="m 22.486328,7.2167968 -6.232422,6.2304682 -3.863281,-3.8632807 -0.06445,0.064453 -0.06445,-0.064453 -4.2285159,4.2285157 0.8359375,0.835938 -2.7148437,2.691406 14.1953121,14.0625 A 16,16 0 0 0 31.984375,16.625 L 22.486328,7.2167968 Z"
       id="rect4150-9"
       inkscape:connector-curvature="0" />
  </g>
  <g
     inkscape:label="Pills"
     inkscape:groupmode="layer"
     id="layer1"
     transform="translate(1.6428528,-770.52698)"
     style="display:inline">
    <path
       id="path4735"
       style="fill:#fbf5dd;fill-opacity:1;fill-rule:nonzero;stroke:none;stroke-linejoin:miter;stroke-opacity:1"
       d="m 10.94154,780.36579 c -0.178784,-0.3999 -0.627408,-0.53639 -1.0336182,-0.1108 -0.04419,0.0443 -0.08711,0.0897 -0.1288516,0.13582 -0.04191,0.0464 -0.082535,0.0938 -0.1219307,0.14198 -0.039532,0.0484 -0.077786,0.0978 -0.1147132,0.1479 -0.037054,0.0503 -0.072786,0.10146 -0.1071623,0.15344 -0.034522,0.0521 -0.067647,0.10501 -0.099429,0.15862 -0.031854,0.0537 -0.062297,0.10825 -0.091409,0.16333 -0.029127,0.0553 -0.056821,0.11121 -0.083169,0.16771 -0.026327,0.0566 -0.05131,0.11383 -0.074799,0.17164 -0.023475,0.058 -0.045614,0.11616 -0.066203,0.1751 -0.020625,0.0589 -0.039774,0.11831 -0.057457,0.17815 -0.017659,0.0599 -0.033834,0.1201 -0.048532,0.18078 -0.014675,0.0607 -0.027916,0.12155 -0.039583,0.18293 -0.011646,0.0613 -0.021849,0.12281 -0.030475,0.18471 -0.00862,0.0617 -0.015676,0.12379 -0.02124,0.18598 -0.00556,0.0621 -0.00954,0.12435 -0.011986,0.18679 -0.00246,0.0622 -0.00337,0.12469 -0.00271,0.18721 6.639e-4,0.0623 0.00288,0.12462 0.00664,0.18703 0.00381,0.0622 0.00908,0.12434 0.015968,0.18652 0.00687,0.0618 0.01528,0.12372 0.025271,0.18551 0.00994,0.0614 0.021451,0.12274 0.034518,0.18397 0.012993,0.0609 0.02751,0.12151 0.043622,0.18202 0.016005,0.06 0.033515,0.11998 0.052623,0.17965 0.018917,0.0591 0.039452,0.11812 0.061489,0.17679 0.02176,0.0579 0.045123,0.11579 0.069952,0.17325 0.024923,0.0573 0.051177,0.1139 0.07876,0.16942 0.027858,0.0561 0.05686,0.11142 0.087137,0.16566 0.03053,0.0548 0.062321,0.10843 0.095278,0.16115 0.033215,0.0531 0.067608,0.10516 0.1031605,0.15619 0.035762,0.0513 0.072725,0.10165 0.1107993,0.15085 0.038312,0.0496 0.077712,0.0978 0.1182296,0.14515 0.040713,0.0475 0.082505,0.0939 0.1253324,0.13906 0.04298,0.0454 0.08705,0.0896 0.132082,0.13261 0.04521,0.0432 0.09144,0.0851 0.1385872,0.12589 0.04727,0.0409 0.0955,0.0805 0.144618,0.11882 0.04921,0.0384 0.09938,0.0757 0.150361,0.11152 0.05107,0.036 0.102991,0.0706 0.155718,0.10389 0.05277,0.0334 0.106312,0.0653 0.160647,0.0961 0.05431,0.0306 0.109433,0.0601 0.165194,0.088 0.05579,0.028 0.112293,0.0546 0.16937,0.0798 0.05708,0.0251 0.114783,0.0489 0.173109,0.0713 0.05824,0.0222 0.117098,0.0432 0.176462,0.0626 0.05928,0.0194 0.119068,0.0374 0.179298,0.0538 0.06014,0.0164 0.120713,0.0314 0.181731,0.0448 0.06085,0.0133 0.12213,0.0253 0.183765,0.0357 0.06139,0.0105 0.123211,0.0192 0.185272,0.0266 0.06185,0.007 0.123996,0.013 0.186375,0.0173 0.06213,0.004 0.124482,0.007 0.187019,0.008 0.06225,10e-4 0.124683,7.2e-4 0.187217,-0.002 0.588294,-0.006 0.795017,-0.4269 0.625039,-0.83065 l -0.0743,-0.17119 -0.07429,-0.17116 -0.0743,-0.17122 -0.07429,-0.17116 -0.0743,-0.1712 -0.0743,-0.17119 -0.0743,-0.1712 -0.0743,-0.17121 -0.07428,-0.17115 -0.0743,-0.1712 -0.07429,-0.17117 -0.07429,-0.1712 -0.0743,-0.1712 -0.07429,-0.17116 -0.0743,-0.1712 -0.0743,-0.1712 -0.0743,-0.17121 -0.0743,-0.17119 -0.07428,-0.17115 -0.07431,-0.17121 -0.0743,-0.1712 -0.0743,-0.1712 -0.07428,-0.17116 -0.0743,-0.17119 -0.0743,-0.17122 -0.0743,-0.17119 -0.0743,-0.17119 -0.07428,-0.17117 -0.07429,-0.17118 -0.07429,-0.17119 -0.0743,-0.1712 -0.07429,-0.17115 z m -5.3360311,1.67119 c -1.8179165,0.78898 -2.6462721,2.88765 -1.8573066,4.70557 0.7889656,1.81792 2.8876508,2.64632 4.7055672,1.85735 l 4.5956645,-1.9945 -0.06805,-0.15679 c -0.04722,-10e-4 -0.0943,-0.004 -0.141318,-0.007 -0.06238,-0.004 -0.124525,-0.0102 -0.186369,-0.0173 -0.06207,-0.007 -0.123876,-0.0162 -0.185278,-0.0266 -0.06158,-0.0105 -0.122904,-0.0223 -0.183763,-0.0357 -0.06096,-0.0133 -0.121618,-0.0284 -0.181725,-0.0448 -0.06026,-0.0164 -0.120051,-0.0345 -0.179305,-0.0538 -0.05933,-0.0193 -0.118155,-0.0402 -0.176458,-0.0626 -0.05825,-0.0222 -0.115992,-0.0461 -0.173114,-0.0713 -0.05709,-0.0251 -0.113586,-0.0517 -0.16937,-0.0798 -0.05579,-0.028 -0.110839,-0.0573 -0.165195,-0.088 -0.05433,-0.0307 -0.10785,-0.0626 -0.16064,-0.096 -0.05273,-0.0334 -0.104623,-0.068 -0.155716,-0.1039 -0.05098,-0.0359 -0.101137,-0.0732 -0.150353,-0.11151 -0.04914,-0.0384 -0.09734,-0.078 -0.144623,-0.11883 -0.04713,-0.0408 -0.09337,-0.0826 -0.138582,-0.12589 -0.04504,-0.0431 -0.08908,-0.0872 -0.132082,-0.1326 -0.04286,-0.0454 -0.08463,-0.0915 -0.125333,-0.13907 -0.04052,-0.0473 -0.07993,-0.0957 -0.118225,-0.14515 -0.03806,-0.0492 -0.07501,-0.0994 -0.1108,-0.15086 -0.03557,-0.0511 -0.06997,-0.10309 -0.1031592,-0.1562 -0.03289,-0.0526 -0.06474,-0.1064 -0.09527,-0.16111 -0.03029,-0.0542 -0.05933,-0.10951 -0.08714,-0.16569 -0.027436,-0.0557 -0.053842,-0.112 -0.078763,-0.16942 -0.024852,-0.0574 -0.048241,-0.11518 -0.069953,-0.17324 -0.022079,-0.0586 -0.042542,-0.11761 -0.061489,-0.17679 -0.019063,-0.0597 -0.036631,-0.11957 -0.052623,-0.17966 -0.016072,-0.0604 -0.030631,-0.12121 -0.043622,-0.18202 -0.013047,-0.0612 -0.024587,-0.12256 -0.034514,-0.18397 -0.00998,-0.0617 -0.018412,-0.12363 -0.025277,-0.18549 -0.00692,-0.0621 -0.012208,-0.12438 -0.015972,-0.18653 -0.00376,-0.0623 -0.006,-0.12476 -0.00664,-0.18705 -6.625e-4,-0.0625 2.64e-4,-0.12493 0.0027,-0.18719 0.00244,-0.0625 0.00645,-0.12472 0.01199,-0.18679 0.00557,-0.0622 0.012629,-0.12425 0.02124,-0.186 0.00863,-0.0618 0.018786,-0.12349 0.030469,-0.18469 0.011683,-0.0613 0.024905,-0.12226 0.03958,-0.18293 0.014694,-0.0607 0.030846,-0.12098 0.048535,-0.18078 0.017659,-0.0599 0.03681,-0.11931 0.057452,-0.17816 0.020615,-0.0589 0.042723,-0.11719 0.066203,-0.17509 0.023518,-0.0578 0.048462,-0.115 0.074798,-0.17165 0.02632,-0.0566 0.054015,-0.1125 0.083175,-0.1677 0.02908,-0.0551 0.05956,-0.10957 0.0914,-0.16333 0.03174,-0.0537 0.06496,-0.10648 0.09942,-0.15862 0.03441,-0.0518 0.07011,-0.10315 0.1071672,-0.15345 0.03693,-0.0501 0.07518,-0.0995 0.114709,-0.1479 0.02974,-0.0366 0.06054,-0.0722 0.09172,-0.10772 l -0.06802,-0.15656 -4.5956634,1.99449 z m 6.5237721,-2.18667 c -0.169976,-0.40371 0.03675,-0.82461 0.625039,-0.83065 0.06257,-0.002 0.125006,-0.002 0.187217,-0.002 0.06254,10e-4 0.124894,0.004 0.186981,0.008 0.06238,0.004 0.124526,0.0102 0.186373,0.0173 0.06206,0.007 0.123835,0.0161 0.185275,0.0266 0.06158,0.0105 0.122905,0.0223 0.183766,0.0357 0.061,0.0134 0.121617,0.0284 0.181724,0.0448 0.06026,0.0164 0.120051,0.0345 0.179301,0.0538 0.05937,0.0194 0.118194,0.0403 0.176462,0.0626 0.05833,0.0224 0.115991,0.0461 0.17311,0.0713 0.0571,0.0251 0.113586,0.0517 0.169367,0.0798 0.05578,0.028 0.11083,0.0573 0.165198,0.088 0.05433,0.0307 0.107849,0.0626 0.160643,0.096 0.05272,0.0334 0.104632,0.068 0.155712,0.1039 0.05098,0.0359 0.101137,0.0732 0.150366,0.11151 0.0491,0.0384 0.09733,0.0781 0.144622,0.11883 0.04714,0.0407 0.09337,0.0827 0.138583,0.12588 0.04505,0.0431 0.08908,0.0873 0.132079,0.1326 0.04286,0.0453 0.08462,0.0915 0.125332,0.13905 0.04052,0.0473 0.07993,0.0957 0.118224,0.14517 0.03806,0.0492 0.07501,0.0994 0.110805,0.15087 0.03557,0.0511 0.06996,0.10309 0.103156,0.15618 0.03288,0.0527 0.06474,0.10643 0.09528,0.16115 0.03029,0.0543 0.05932,0.10948 0.08714,0.16565 0.02736,0.0556 0.05375,0.11204 0.07876,0.16943 0.02492,0.0573 0.04824,0.11517 0.06996,0.17324 0.02208,0.0586 0.04255,0.11763 0.06149,0.17679 0.01906,0.0597 0.03663,0.11958 0.05262,0.17964 0.01615,0.0606 0.03064,0.12122 0.04363,0.18205 0.01305,0.0612 0.02458,0.12255 0.03452,0.18396 0.01002,0.0618 0.01841,0.12361 0.02528,0.18549 0.0069,0.0621 0.01221,0.12437 0.01596,0.18652 0.0037,0.0623 0.006,0.12478 0.0066,0.18704 6.43e-4,0.0625 -2.55e-4,0.12495 -0.0027,0.18722 -0.0025,0.0625 -0.0064,0.12472 -0.01199,0.18678 -0.0056,0.0622 -0.01262,0.12426 -0.02125,0.186 -0.0087,0.0619 -0.01883,0.1234 -0.03047,0.18469 -0.01168,0.0613 -0.0249,0.12227 -0.03958,0.18294 -0.01474,0.0606 -0.03085,0.12097 -0.04854,0.18077 -0.01766,0.0599 -0.03682,0.11932 -0.05745,0.17816 -0.02061,0.0589 -0.04273,0.1172 -0.06621,0.17509 -0.02352,0.0578 -0.04846,0.11501 -0.0748,0.17164 -0.02632,0.0566 -0.05401,0.11252 -0.08317,0.16771 -0.02908,0.0552 -0.05956,0.10958 -0.09141,0.16334 -0.03179,0.0535 -0.06496,0.10646 -0.09943,0.15862 -0.03441,0.0518 -0.0701,0.10312 -0.107164,0.15344 -0.03693,0.0501 -0.07518,0.0995 -0.114714,0.1479 -0.03936,0.0482 -0.07997,0.0957 -0.12189,0.14207 -0.0417,0.0462 -0.08463,0.0916 -0.12885,0.13582 -0.40621,0.42559 -0.854814,0.28913 -1.033622,-0.11079 l -0.0743,-0.1712 -0.07429,-0.17116 -0.0743,-0.17121 -0.07429,-0.17116 -0.0743,-0.1712 -0.0743,-0.1712 -0.0743,-0.17119 -0.0743,-0.17121 -0.07428,-0.17115 -0.0743,-0.17121 -0.07429,-0.17117 -0.07429,-0.17119 -0.0743,-0.1712 -0.07429,-0.17116 -0.0743,-0.1712 -0.0743,-0.17121 -0.0743,-0.1712 -0.0743,-0.17119 -0.07428,-0.17115 -0.07431,-0.17121 -0.0743,-0.17121 -0.0743,-0.17119 -0.07428,-0.17116 -0.0743,-0.17119 -0.0743,-0.17122 -0.0743,-0.17119 -0.0743,-0.1712 -0.07429,-0.17116 -0.07429,-0.17118 -0.07429,-0.17119 -0.0743,-0.1712 -0.07428,-0.17116 z m 4.86521,-2.75607 c 1.817917,-0.78897 3.916587,0.0393 4.705551,1.85732 0.788966,1.81791 -0.03937,3.91662 -1.85729,4.7056 l -4.595664,1.99448 -0.06805,-0.1568 c 0.03121,-0.0354 0.06199,-0.0711 0.09172,-0.10772 0.03954,-0.0484 0.07779,-0.0978 0.114709,-0.14789 0.03706,-0.0503 0.07276,-0.10157 0.107164,-0.15346 0.03452,-0.052 0.06765,-0.10501 0.09943,-0.15862 0.0319,-0.0536 0.0623,-0.10824 0.09141,-0.16331 0.02912,-0.0553 0.05682,-0.11121 0.08317,-0.16772 0.02636,-0.0566 0.05136,-0.11375 0.0748,-0.17164 0.02355,-0.0578 0.0456,-0.11615 0.06621,-0.17509 0.02062,-0.0589 0.03977,-0.11832 0.05745,-0.17816 0.01766,-0.0599 0.03385,-0.12011 0.04854,-0.18079 0.01468,-0.0607 0.02792,-0.12156 0.03959,-0.18291 0.01165,-0.0613 0.02184,-0.12282 0.03046,-0.18471 0.0087,-0.0618 0.01567,-0.1238 0.02125,-0.18599 0.0056,-0.0622 0.0095,-0.12434 0.01199,-0.18679 0.0025,-0.0622 0.0034,-0.12468 0.0027,-0.18719 -6.43e-4,-0.0623 -0.0029,-0.12464 -0.0066,-0.18705 -0.0038,-0.0622 -0.0091,-0.12436 -0.01596,-0.18652 -0.0068,-0.0618 -0.01529,-0.12372 -0.02529,-0.1855 -0.0099,-0.0614 -0.02144,-0.12277 -0.03452,-0.18397 -0.013,-0.0609 -0.02752,-0.12151 -0.04363,-0.18203 -0.016,-0.06 -0.0335,-0.11998 -0.05262,-0.17964 -0.01891,-0.0591 -0.03946,-0.11812 -0.06149,-0.1768 -0.02193,-0.058 -0.04503,-0.11583 -0.06996,-0.17325 -0.02493,-0.0573 -0.05118,-0.1139 -0.07876,-0.16942 -0.02777,-0.0562 -0.05686,-0.11141 -0.08714,-0.16567 -0.03062,-0.0548 -0.06233,-0.10842 -0.09527,-0.16113 -0.03313,-0.053 -0.06762,-0.10516 -0.103158,-0.15619 -0.03577,-0.0513 -0.07272,-0.10166 -0.110798,-0.15085 -0.03827,-0.0495 -0.07773,-0.0978 -0.118222,-0.14516 -0.04071,-0.0475 -0.08252,-0.0939 -0.125336,-0.13907 -0.04298,-0.0453 -0.08704,-0.0896 -0.132082,-0.1326 -0.04521,-0.0432 -0.09143,-0.0851 -0.138588,-0.1259 -0.04727,-0.0409 -0.0955,-0.0805 -0.144618,-0.11882 -0.04921,-0.0384 -0.09938,-0.0757 -0.150357,-0.11152 -0.05108,-0.036 -0.103035,-0.0707 -0.155709,-0.10388 -0.05277,-0.0334 -0.106312,-0.0653 -0.160649,-0.096 -0.05435,-0.0307 -0.109434,-0.0601 -0.165192,-0.088 -0.0558,-0.028 -0.112294,-0.0546 -0.169374,-0.0798 -0.05708,-0.0251 -0.114782,-0.0488 -0.173111,-0.0713 -0.05823,-0.0222 -0.117097,-0.0432 -0.176461,-0.0626 -0.05928,-0.0194 -0.119068,-0.0374 -0.179296,-0.0538 -0.06013,-0.0164 -0.120713,-0.0314 -0.181733,-0.0448 -0.06089,-0.0135 -0.12213,-0.0253 -0.183766,-0.0357 -0.06139,-0.0105 -0.123211,-0.0192 -0.185276,-0.0266 -0.06185,-0.007 -0.123991,-0.013 -0.186369,-0.0173 -0.04701,-0.003 -0.09407,-0.005 -0.141317,-0.007 l -0.06803,-0.15675 4.595663,-1.99449 z m -0.231868,19.00428 c -0.189935,0.51686 0.09418,1.03337 0.83328,1.00667 0.07863,-10e-4 0.15706,-0.004 0.235159,-0.009 0.0785,-0.005 0.156602,-0.0121 0.234364,-0.0209 0.07806,-0.009 0.155802,-0.0198 0.233058,-0.0325 0.0775,-0.0128 0.154578,-0.0275 0.231121,-0.0442 0.07671,-0.0167 0.153037,-0.0352 0.228691,-0.0555 0.07587,-0.0204 0.151032,-0.0427 0.225594,-0.0669 0.07472,-0.0242 0.148716,-0.0502 0.222021,-0.078 0.07333,-0.0278 0.146086,-0.0574 0.217944,-0.0889 0.07189,-0.0314 0.143003,-0.0646 0.213224,-0.0995 0.07022,-0.0349 0.139612,-0.0716 0.208045,-0.10997 0.06839,-0.0384 0.135844,-0.0784 0.202322,-0.12017 0.06643,-0.0417 0.131773,-0.085 0.196122,-0.12994 0.06422,-0.0449 0.127452,-0.0914 0.189497,-0.13953 0.06196,-0.048 0.122725,-0.0976 0.182314,-0.1488 0.05945,-0.051 0.117672,-0.10358 0.174682,-0.15764 0.05689,-0.0538 0.112435,-0.1093 0.166695,-0.16615 0.05407,-0.0566 0.106759,-0.11473 0.158149,-0.17421 0.0512,-0.0593 0.100988,-0.11989 0.14927,-0.18194 0.04815,-0.0617 0.09479,-0.12478 0.139986,-0.18917 0.04494,-0.064 0.08835,-0.12934 0.130303,-0.19592 0.04168,-0.0662 0.08189,-0.13351 0.120422,-0.20215 0.03833,-0.0681 0.07509,-0.13742 0.11025,-0.2079 0.03512,-0.0698 0.06816,-0.14093 0.09977,-0.2131 0.03139,-0.0713 0.06107,-0.14379 0.08902,-0.21735 0.02795,-0.0736 0.05387,-0.14744 0.07776,-0.22162 0.02419,-0.075 0.04635,-0.15027 0.06692,-0.2256 0.02033,-0.0761 0.03896,-0.15231 0.05562,-0.22865 0.01667,-0.0769 0.03133,-0.15402 0.04419,-0.23112 0.01284,-0.0776 0.02377,-0.15531 0.03267,-0.23301 0.0089,-0.0781 0.01589,-0.15634 0.02095,-0.2344 0.0051,-0.0784 0.008,-0.15691 0.0092,-0.23516 0.0011,-0.0786 2.5e-4,-0.15702 -0.0026,-0.23527 -0.0028,-0.0785 -0.0076,-0.1569 -0.0143,-0.23493 -0.0067,-0.0782 -0.01541,-0.15624 -0.02594,-0.23386 -0.01062,-0.0778 -0.02308,-0.15528 -0.03751,-0.23231 -0.01441,-0.0771 -0.03079,-0.15392 -0.04903,-0.23017 -0.01827,-0.0763 -0.03835,-0.15211 -0.06036,-0.22738 -0.02198,-0.0753 -0.04578,-0.15009 -0.07148,-0.2242 -0.02567,-0.0741 -0.05321,-0.14761 -0.08253,-0.22038 -0.02931,-0.0727 -0.06044,-0.14477 -0.09333,-0.21601 -0.03289,-0.0712 -0.06754,-0.14164 -0.10393,-0.21119 -0.03634,-0.0695 -0.07441,-0.13807 -0.114216,-0.20575 -0.03976,-0.0676 -0.08118,-0.13414 -0.124295,-0.19977 -0.04301,-0.0655 -0.08775,-0.12999 -0.134096,-0.1934 -0.04623,-0.0633 -0.09404,-0.12545 -0.143492,-0.1865 -0.04929,-0.0609 -0.100196,-0.12055 -0.152655,-0.17908 -0.0522,-0.0583 -0.106022,-0.1154 -0.161355,-0.17126 -0.05505,-0.0555 -0.111658,-0.10994 -0.169743,-0.163 -0.534896,-0.51075 -1.090288,-0.31321 -1.291506,0.19937 l -0.08333,0.21931 -0.08331,0.21927 -0.08332,0.21931 -0.08331,0.21927 -0.08332,0.21931 -0.08332,0.21931 -0.08333,0.21931 -0.08332,0.21932 -0.0833,0.21927 -0.08332,0.21931 -0.0833,0.21926 -0.08332,0.21931 -0.08333,0.21932 -0.0833,0.21926 -0.08332,0.21931 -0.08332,0.21931 -0.08332,0.21931 -0.08332,0.21932 -0.08331,0.21927 -0.08332,0.21931 -0.08332,0.21931 -0.08332,0.21931 -0.0833,0.21927 -0.08332,0.21931 -0.08332,0.21931 -0.08332,0.21931 -0.08332,0.21932 -0.0833,0.21926 -0.08332,0.21931 -0.08331,0.21927 -0.08333,0.21932 -0.08331,0.21926 z m -3.66408,-5.40742 c -0.02786,0.0736 -0.05387,0.14744 -0.07776,0.22162 -0.02419,0.075 -0.04635,0.15027 -0.06692,0.2256 -0.02033,0.0761 -0.03896,0.15231 -0.05562,0.22865 -0.01667,0.0769 -0.03143,0.15399 -0.0442,0.23112 -0.01284,0.0776 -0.02377,0.15531 -0.03267,0.23301 -0.0089,0.0781 -0.01589,0.15633 -0.02095,0.2344 -0.005,0.0785 -0.008,0.1569 -0.0092,0.23515 -0.0011,0.0786 -2.49e-4,0.15703 0.0026,0.23527 0.0028,0.0785 0.0076,0.15691 0.0143,0.23493 0.0067,0.0782 0.0154,0.15625 0.02595,0.23387 0.01062,0.0778 0.02308,0.15528 0.03751,0.23231 0.01441,0.0771 0.03079,0.15392 0.04902,0.23016 0.01827,0.0763 0.03835,0.15213 0.06037,0.2274 0.02198,0.0753 0.04578,0.15009 0.07147,0.22419 0.02566,0.0741 0.05321,0.14761 0.08253,0.22038 0.02931,0.0727 0.06044,0.14477 0.09333,0.21602 0.03289,0.0712 0.06755,0.14164 0.10394,0.21118 0.03634,0.0695 0.07441,0.13807 0.114206,0.20575 0.03976,0.0676 0.08119,0.13415 0.124305,0.19978 0.04301,0.0655 0.08775,0.12997 0.134085,0.1934 0.04623,0.0633 0.09404,0.12543 0.143513,0.18649 0.04929,0.0609 0.100185,0.12056 0.152636,0.17907 0.05229,0.0583 0.106022,0.1154 0.161364,0.17126 0.05505,0.0555 0.111648,0.10996 0.169743,0.16301 0.534887,0.51076 1.090288,0.31321 1.291505,-0.19937 l 0.08331,-0.21926 0.08332,-0.21932 0.0833,-0.21927 0.08332,-0.21931 0.0833,-0.21926 0.08332,-0.21932 0.08333,-0.21931 0.08332,-0.21931 0.08332,-0.21931 0.0833,-0.21926 0.08332,-0.21932 0.08332,-0.21931 0.08333,-0.21931 0.0833,-0.21927 0.08332,-0.21932 0.08332,-0.2193 0.08332,-0.21931 0.08332,-0.21931 0.08331,-0.21927 0.08332,-0.21932 0.08332,-0.21931 0.0833,-0.21926 0.08332,-0.21931 0.08331,-0.21927 0.08332,-0.21932 0.08333,-0.21931 0.08332,-0.2193 0.08332,-0.21931 0.08331,-0.21928 0.08332,-0.21931 0.0833,-0.21926 0.08333,-0.21931 c 0.189935,-0.51688 -0.09419,-1.03338 -0.833281,-1.00667 -0.07863,10e-4 -0.157069,0.004 -0.235159,0.009 -0.0785,0.005 -0.156602,0.0121 -0.234373,0.0209 -0.07806,0.009 -0.155802,0.0198 -0.233039,0.0325 -0.0775,0.0129 -0.154594,0.0275 -0.231141,0.0442 -0.0767,0.0167 -0.153038,0.0351 -0.228681,0.0555 -0.07587,0.0204 -0.151032,0.0427 -0.225603,0.0669 -0.07472,0.0242 -0.148706,0.0502 -0.222012,0.078 -0.07332,0.0278 -0.146095,0.0575 -0.217953,0.0889 -0.07189,0.0314 -0.142994,0.0646 -0.213225,0.0995 -0.07022,0.0349 -0.139612,0.0716 -0.208045,0.10996 -0.0684,0.0384 -0.135844,0.0784 -0.202312,0.12017 -0.06643,0.0417 -0.131773,0.085 -0.196132,0.12995 -0.06422,0.0449 -0.127452,0.0914 -0.189487,0.13953 -0.06196,0.048 -0.122725,0.0976 -0.182314,0.1488 -0.05945,0.051 -0.117672,0.10358 -0.174692,0.15763 -0.05689,0.0538 -0.112436,0.10931 -0.166694,0.16616 -0.05407,0.0566 -0.106759,0.11473 -0.158151,0.17421 -0.0512,0.0593 -0.100892,0.11993 -0.149268,0.18193 -0.04816,0.0617 -0.09479,0.12479 -0.139986,0.18918 -0.04494,0.064 -0.08836,0.12934 -0.130303,0.19592 -0.04168,0.0662 -0.08188,0.13351 -0.120423,0.20215 -0.03824,0.0681 -0.07509,0.13741 -0.110249,0.20789 -0.03512,0.0698 -0.06816,0.14093 -0.09977,0.21311 -0.0314,0.0713 -0.06108,0.14379 -0.08902,0.21734 z"
       inkscape:connector-curvature="0" />
  </g>
</svg>
