<?xml version="1.0" standalone="no"?>
<!DOCTYPE svg PUBLIC "-//W3C//DTD SVG 1.1//EN" "http://www.w3.org/Graphics/SVG/1.1/DTD/svg11.dtd" >
<svg>
<metadata>
Created by FontForge 20120731 at Fri Sep 23 14:44:45 2016
 By ,,,
Copyright (C) 2004 Hoefler &#38; Frere-Jones Typography, Inc. www.typography.com
</metadata>
<defs>
<font id="WhitneyHTF-BookCondensed" horiz-adv-x="365" >
  <font-face 
    font-family="Whitney HTF Book Condensed"
    font-weight="500"
    font-stretch="condensed"
    units-per-em="1000"
    panose-1="0 0 0 0 0 0 0 0 0 0"
    ascent="800"
    descent="-200"
    x-height="473"
    cap-height="690"
    bbox="-50 -200 707 909"
    underline-thickness="20"
    underline-position="-123"
    unicode-range="U+0020-FB02"
  />
<missing-glyph horiz-adv-x="500" 
 />
    <glyph glyph-name=".notdef" horiz-adv-x="500" 
 />
    <glyph glyph-name=".null" horiz-adv-x="0" 
 />
    <glyph glyph-name="nonmarkingreturn" horiz-adv-x="333" 
 />
    <glyph glyph-name="space" unicode=" " horiz-adv-x="179" 
 />
    <glyph glyph-name="exclam" unicode="!" horiz-adv-x="207" 
d="M141 690l-17 -491l-42 -9l-16 500h75zM140 0h-73v98h73v-98z" />
    <glyph glyph-name="quotedbl" unicode="&#x22;" horiz-adv-x="323" 
d="M270 690l-21 -185l-36 9l-21 176h78zM127 690l-21 -185l-37 9l-20 176h78z" />
    <glyph glyph-name="numbersign" unicode="#" horiz-adv-x="558" 
d="M178 186l-29 -193l-45 11l27 182h-95v55h102l31 209h-105l-9 55h122l28 187h48l-28 -187h154l29 192l45 -10l-26 -182h94v-55h-103l-31 -209h106l10 -55h-123l-28 -187h-48l28 187h-154zM217 450l-31 -210h154l31 210h-154z" />
    <glyph glyph-name="dollar" unicode="$" horiz-adv-x="419" 
d="M169 -127l-44 11l18 118q-63 10 -117 41l10 60q58 -36 116 -48l44 278q-78 46 -113.5 89t-35.5 105q0 75 47.5 120t127.5 45q20 0 29 -1l12 79l44 -11l-12 -75q35 -9 71 -28l-10 -60q-38 24 -71 33l-39 -257q72 -44 105 -89t33 -107q0 -82 -51.5 -130.5t-135.5 -48.5h-8z
M205 395l38 243q-8 2 -23 2q-56 0 -85 -29t-29 -80q0 -42 22 -71.5t77 -64.5zM196 50h6q59 0 91 33.5t32 89.5q0 42 -18.5 73t-70.5 64z" />
    <glyph glyph-name="percent" unicode="%" horiz-adv-x="647" 
d="M270 504q0 -91 -31 -142.5t-88 -51.5t-88 51.5t-31 142.5t31 142.5t88 51.5q55 0 87 -52t32 -142zM537 685l-371 -691l-48 12l371 691zM217 504q0 64 -17 105t-50 41q-65 0 -65 -146q0 -145 67 -145q65 0 65 145zM621 185q0 -90 -31.5 -141.5t-88.5 -51.5t-88.5 51.5
t-31.5 142.5t31.5 142.5t88.5 51.5q56 0 88 -52t32 -143zM567 185q0 66 -16 106t-50 40q-66 0 -66 -145q0 -146 66 -146t66 145z" />
    <glyph glyph-name="ampersand" unicode="&#x26;" horiz-adv-x="538" 
d="M530 10l-63 -16l-81 104q-63 -107 -176 -107q-79 0 -127.5 52t-48.5 132q0 68 36 122.5t97 88.5q-60 86 -60 158q0 66 39.5 110.5t109.5 44.5q69 0 122 -38l-13 -64q-54 45 -106 45q-40 0 -64 -26.5t-24 -70.5q0 -35 13.5 -66t50.5 -80l141 -187q25 79 38 190l58 -13
q-23 -149 -56 -229zM349 146l-149 196q-101 -54 -101 -160q0 -60 32 -97t81 -37q87 0 137 98z" />
    <glyph glyph-name="quotesingle" unicode="'" horiz-adv-x="180" 
d="M127 690l-21 -185l-37 9l-20 176h78z" />
    <glyph glyph-name="parenleft" unicode="(" horiz-adv-x="283" 
d="M267 -84l-55 -12q-85 93 -125.5 190.5t-40.5 217.5q0 125 52 233t143 181l16 -57q-65 -60 -106.5 -154.5t-41.5 -202.5q0 -116 35.5 -206.5t122.5 -189.5z" />
    <glyph glyph-name="parenright" unicode=")" horiz-adv-x="283" 
d="M237 314q0 -124 -52 -232.5t-142 -181.5l-17 57q65 60 107 154.5t42 203.5q0 116 -35.5 206.5t-123.5 189.5l56 11q85 -93 125 -190t40 -218z" />
    <glyph glyph-name="asterisk" unicode="*" horiz-adv-x="297" 
d="M272 595l-90 -41l49 -89l-13 -9l-70 73l-69 -73l-14 9l49 89l-90 41l4 17l100 -21l10 103h21l10 -103l99 21z" />
    <glyph glyph-name="plus" unicode="+" horiz-adv-x="452" 
d="M406 322h-154v-176h-53v176h-153v51h153v177h53v-177h154v-51z" />
    <glyph glyph-name="comma" unicode="," horiz-adv-x="163" 
d="M125 98l-55 -195l-35 8l13 187h77z" />
    <glyph glyph-name="hyphen" unicode="-" horiz-adv-x="285" 
d="M251 251h-216v65h216v-65z" />
    <glyph glyph-name="period" unicode="." horiz-adv-x="163" 
d="M118 0h-73v98h73v-98z" />
    <glyph glyph-name="slash" unicode="/" horiz-adv-x="299" 
d="M299 686l-274 -809l-50 11l272 809z" />
    <glyph glyph-name="zero" unicode="0" horiz-adv-x="480" 
d="M444 346q0 -168 -54 -262.5t-151 -94.5q-96 0 -149.5 93.5t-53.5 261.5t53.5 262.5t150.5 94.5t150.5 -93.5t53.5 -261.5zM379 344q0 139 -36 220t-104 81q-67 0 -103 -80.5t-36 -218.5q0 -139 36.5 -219.5t103.5 -80.5q68 0 103.5 79.5t35.5 218.5z" />
    <glyph glyph-name="one" unicode="1" horiz-adv-x="247" 
d="M177 0h-62v622l-95 -39l-8 51l116 57h49v-691z" />
    <glyph glyph-name="two" unicode="2" horiz-adv-x="391" 
d="M356 0h-330v48l175 264q41 63 60 110t19 98q0 58 -26 90.5t-74 32.5q-65 0 -130 -60l-9 64q67 54 143 54q77 0 119 -45.5t42 -130.5q0 -62 -24 -117t-76 -134l-145 -217h246z" />
    <glyph glyph-name="three" unicode="3" horiz-adv-x="377" 
d="M343 192q0 -95 -52.5 -149t-133.5 -54q-74 0 -139 45l11 63q62 -51 129 -51q53 0 86.5 38t33.5 105q0 69 -47 109t-116 40h-2l-9 56h10q68 0 109.5 35t41.5 102q0 53 -29 83t-77 30q-57 0 -121 -49l-9 59q65 46 140 46q74 0 118 -46t44 -120q0 -125 -118 -166
q59 -19 94.5 -63t35.5 -113z" />
    <glyph glyph-name="four" unicode="4" horiz-adv-x="442" 
d="M427 166h-84v-166h-59v166h-263v42l245 485h77v-474h84v-53zM284 219v396l-199 -396h199z" />
    <glyph glyph-name="five" unicode="5" horiz-adv-x="393" 
d="M360 212q0 -108 -53 -165.5t-137 -57.5q-73 0 -140 42l10 62q70 -48 131 -48q56 0 90.5 42.5t34.5 123.5q0 67 -32.5 104.5t-83.5 37.5q-43 0 -81 -20l-42 9l25 348h247l8 -57h-203l-18 -238q35 14 72 14q76 0 124 -51.5t48 -145.5z" />
    <glyph glyph-name="six" unicode="6" horiz-adv-x="427" 
d="M224 -11q-86 0 -137.5 78.5t-51.5 213.5q0 160 69 268.5t191 153.5l9 -57q-84 -34 -136.5 -105.5t-65.5 -173.5q69 48 137 48q74 0 117.5 -55.5t43.5 -151.5q0 -97 -49 -158t-127 -61zM225 45q51 0 81 43t30 117q0 72 -28.5 113.5t-82.5 41.5q-62 0 -128 -59v-16
q0 -109 36 -174.5t92 -65.5z" />
    <glyph glyph-name="seven" unicode="7" horiz-adv-x="383" 
d="M359 644l-239 -650l-59 14l232 626h-263l-9 56h338v-46z" />
    <glyph glyph-name="eight" unicode="8" horiz-adv-x="432" 
d="M216 -11q-85 0 -134 53t-49 134q0 114 112 195q-90 64 -90 163q0 75 44.5 121t116.5 46t116.5 -46t44.5 -121q0 -103 -91 -177q113 -68 113 -180q0 -85 -49.5 -136.5t-133.5 -51.5zM240 383q73 61 73 149q0 52 -26 83t-72 31q-45 0 -70.5 -30.5t-25.5 -80.5
q0 -49 29 -83.5t92 -68.5zM217 44q55 0 86 35.5t31 98.5q0 56 -33.5 92t-109.5 75q-94 -65 -94 -165q0 -62 33 -99t87 -37z" />
    <glyph glyph-name="nine" unicode="9" horiz-adv-x="424" 
d="M121 -13l-10 56q172 73 209 270q-67 -46 -131 -46q-76 0 -120.5 56t-44.5 155t50 161t128 62q85 0 136.5 -79t51.5 -213q0 -158 -74 -268t-195 -154zM201 322q61 0 126 58q1 8 1 25q0 107 -36 173.5t-91 66.5q-51 0 -81.5 -44.5t-30.5 -119.5q0 -74 29.5 -116.5
t82.5 -42.5z" />
    <glyph glyph-name="colon" unicode=":" horiz-adv-x="172" 
d="M123 376h-74v97h74v-97zM123 0h-74v98h74v-98z" />
    <glyph glyph-name="semicolon" unicode=";" horiz-adv-x="172" 
d="M123 376h-74v97h74v-97zM125 98l-55 -195l-35 8l13 187h77z" />
    <glyph glyph-name="less" unicode="&#x3c;" horiz-adv-x="376" 
d="M324 96l-285 224v49l285 225v-67l-230 -182l230 -183v-66z" />
    <glyph glyph-name="equal" unicode="=" horiz-adv-x="480" 
d="M422 428h-365v54h365v-54zM422 211h-365v54h365v-54z" />
    <glyph glyph-name="greater" unicode="&#x3e;" horiz-adv-x="376" 
d="M337 320l-285 -224v66l230 182l-230 182v68l285 -225v-49z" />
    <glyph glyph-name="question" unicode="?" horiz-adv-x="380" 
d="M347 534q0 -69 -36 -113.5t-110 -91.5l-10 -130l-41 -9l-11 169l20 12q64 38 92.5 73t28.5 86t-27 81.5t-74 30.5q-69 0 -147 -63l-9 62q77 60 159 60q75 0 120 -45t45 -122zM207 0h-73v98h73v-98z" />
    <glyph glyph-name="at" unicode="@" horiz-adv-x="712" 
d="M364 -138q-149 0 -234.5 102.5t-85.5 273.5q0 169 86 273.5t227 104.5q137 0 224 -101t87 -276q0 -97 -34.5 -146.5t-92.5 -49.5q-75 0 -100 67q-51 -64 -109 -64q-56 0 -92.5 49t-36.5 138q0 97 44 151t114 54q58 0 112 -25v-258q0 -38 19 -60.5t51 -22.5q42 0 66.5 42
t24.5 125q0 161 -78 254t-200 93q-123 0 -201 -93.5t-78 -253.5q0 -164 79 -256t209 -92q92 0 167 46l7 -30q-77 -45 -175 -45zM337 94q44 0 86 59v224q-30 15 -63 15q-49 0 -77 -42t-28 -116q0 -67 22 -103.5t60 -36.5z" />
    <glyph glyph-name="A" unicode="A" horiz-adv-x="485" 
d="M467 8l-63 -14l-61 230h-200l-58 -224h-65l190 694h70zM328 282l-85 325l-85 -325h170z" />
    <glyph glyph-name="B" unicode="B" horiz-adv-x="450" 
d="M421 193q0 -90 -62.5 -141.5t-163.5 -51.5h-133v690h134q94 0 146.5 -45.5t52.5 -123.5q0 -55 -28.5 -94.5t-74.5 -59.5q129 -40 129 -174zM330 515q0 118 -136 118h-67v-244h63q66 0 103 35.5t37 90.5zM356 194q0 69 -42.5 105t-121.5 36h-65v-278h70q76 0 117.5 36.5
t41.5 100.5z" />
    <glyph glyph-name="C" unicode="C" horiz-adv-x="448" 
d="M423 47q-72 -58 -156 -58q-109 0 -169.5 96.5t-60.5 258.5t60.5 259.5t170.5 97.5q81 0 144 -50l-10 -68q-38 31 -67.5 44.5t-67.5 13.5q-81 0 -122 -82t-41 -213q0 -132 43 -214.5t123 -82.5q70 0 144 63z" />
    <glyph glyph-name="D" unicode="D" horiz-adv-x="494" 
d="M455 347q0 -163 -73.5 -255t-212.5 -92h-107v690h107q142 0 214 -91t72 -252zM388 345q0 138 -56 212.5t-157 74.5h-47v-574h47q101 0 157 73.5t56 213.5z" />
    <glyph glyph-name="E" unicode="E" horiz-adv-x="397" 
d="M371 0h-309v690h299v-59h-233v-240h184l10 -59h-194v-273h243v-59z" />
    <glyph glyph-name="F" unicode="F" horiz-adv-x="370" 
d="M347 631h-219v-251h170l10 -59h-180v-321h-66v690h285v-59z" />
    <glyph glyph-name="G" unicode="G" horiz-adv-x="501" 
d="M448 48q-81 -58 -181 -58q-112 0 -171 96.5t-59 257.5q0 160 61 258.5t174 98.5q89 0 159 -52l-10 -68q-70 60 -150 60q-82 0 -124.5 -81t-42.5 -214q0 -132 42 -214t127 -82q65 0 111 32v224h-117l-10 58h191v-316z" />
    <glyph glyph-name="H" unicode="H" horiz-adv-x="505" 
d="M443 0h-66v332h-249v-332h-66v690h66v-299h249v299h66v-690z" />
    <glyph glyph-name="I" unicode="I" horiz-adv-x="204" 
d="M135 0h-66v690h66v-690z" />
    <glyph glyph-name="J" unicode="J" horiz-adv-x="273" 
d="M210 135q0 -71 -36.5 -106t-99.5 -35q-33 0 -49 4l-11 61q25 -6 53 -6q78 0 78 87v550h65v-555z" />
    <glyph glyph-name="K" unicode="K" horiz-adv-x="441" 
d="M438 6l-66 -13l-244 357v-350h-66v690h66v-310l214 310h72l-225 -319z" />
    <glyph glyph-name="L" unicode="L" horiz-adv-x="357" 
d="M346 0h-284v690h66v-631h209z" />
    <glyph glyph-name="M" unicode="M" horiz-adv-x="662" 
d="M615 0h-62l-27 576l-170 -580h-54l-171 580l-26 -576h-58l34 690h75l175 -594l174 594h76z" />
    <glyph glyph-name="N" unicode="N" horiz-adv-x="503" 
d="M441 0h-51l-267 554v-554h-61v690h63l255 -539v539h61v-690z" />
    <glyph glyph-name="O" unicode="O" horiz-adv-x="529" 
d="M492 346q0 -162 -59.5 -259.5t-168.5 -97.5t-168 96.5t-59 258.5t59.5 259.5t168.5 97.5t168 -96.5t59 -258.5zM426 344q0 132 -41.5 215t-120.5 83q-80 0 -120 -81.5t-40 -214.5t40.5 -215.5t120.5 -82.5t120.5 82t40.5 214z" />
    <glyph glyph-name="P" unicode="P" horiz-adv-x="417" 
d="M399 494q0 -96 -60.5 -149.5t-164.5 -53.5h-46v-291h-66v690h125q101 0 156.5 -52t55.5 -144zM333 492q0 140 -150 140h-55v-283h50q78 0 116.5 37.5t38.5 105.5z" />
    <glyph glyph-name="Q" unicode="Q" horiz-adv-x="529" 
d="M492 346q0 -142 -45.5 -231.5t-125.5 -113.5l159 -67l-13 -62l-267 125q-163 77 -163 347q0 162 59.5 259.5t168.5 97.5t168 -96.5t59 -258.5zM426 344q0 132 -41.5 215t-120.5 83q-80 0 -120 -81.5t-40 -214.5t40.5 -216.5t120.5 -83.5q79 0 120 83t41 215z" />
    <glyph glyph-name="R" unicode="R" horiz-adv-x="449" 
d="M373 -7l-182 317h-63v-310h-66v690h126q98 0 154.5 -50.5t56.5 -137.5q0 -72 -37.5 -119t-103.5 -64l180 -311zM128 364h51q76 0 115 36t39 100t-37.5 98t-110.5 34h-57v-268z" />
    <glyph glyph-name="S" unicode="S" horiz-adv-x="392" 
d="M361 167q0 -78 -49 -126t-130 -48t-146 38l10 64q69 -44 139 -44q51 0 81 30.5t30 81.5q0 45 -24.5 81t-86.5 83q-73 55 -105 98.5t-32 110.5q0 70 46 115.5t116 45.5q66 0 118 -29l-10 -65q-53 36 -108 36q-45 0 -71 -28t-26 -71q0 -44 24.5 -75.5t86.5 -78.5
q74 -56 105.5 -103.5t31.5 -115.5z" />
    <glyph glyph-name="T" unicode="T" horiz-adv-x="417" 
d="M409 631h-168v-631h-65v631h-162v59h385z" />
    <glyph glyph-name="U" unicode="U" horiz-adv-x="497" 
d="M438 211q0 -104 -49.5 -162t-141.5 -58q-95 0 -142.5 57t-47.5 160v482h67v-476q0 -164 124 -164q125 0 125 163v477h65v-479z" />
    <glyph glyph-name="V" unicode="V" horiz-adv-x="479" 
d="M457 690l-188 -694h-65l-184 685l62 14l156 -605l153 600h66z" />
    <glyph glyph-name="W" unicode="W" horiz-adv-x="730" 
d="M707 690l-145 -692h-63l-136 587l-133 -587h-61l-144 683l62 14l112 -585l133 581h64l135 -581l112 580h64z" />
    <glyph glyph-name="X" unicode="X" horiz-adv-x="459" 
d="M382 -6l-151 303l-148 -297h-69l184 356l-169 326l66 14l137 -279l135 273h69l-171 -330l183 -353z" />
    <glyph glyph-name="Y" unicode="Y" horiz-adv-x="458" 
d="M449 690l-187 -409v-281h-65v280l-184 402l66 13l151 -347l150 342h69z" />
    <glyph glyph-name="Z" unicode="Z" horiz-adv-x="426" 
d="M400 0h-366v47l290 586h-263l-9 57h344v-47l-289 -586h284z" />
    <glyph glyph-name="bracketleft" unicode="[" horiz-adv-x="343" 
d="M309 -105h-230v795h225v-50h-166v-696h162z" />
    <glyph glyph-name="backslash" unicode="\" horiz-adv-x="299" 
d="M324 -112l-50 -11l-274 809l51 11z" />
    <glyph glyph-name="bracketright" unicode="]" horiz-adv-x="343" 
d="M264 -105h-225v50h166v695h-162l-9 50h230v-795z" />
    <glyph glyph-name="asciicircum" unicode="^" horiz-adv-x="406" 
d="M314 549l-36 -8l-79 85l-75 -83h-43l93 146h52z" />
    <glyph glyph-name="underscore" unicode="_" horiz-adv-x="370" 
d="M371 -102h-373v51h373v-51z" />
    <glyph glyph-name="grave" unicode="`" 
d="M259 549h-45l-109 135l76 19z" />
    <glyph glyph-name="a" unicode="a" horiz-adv-x="370" 
d="M322 0h-47l-8 53q-60 -62 -127 -62q-51 0 -84 32.5t-33 93.5q0 153 236 184v43q0 82 -76 82q-55 0 -119 -41l-9 58q73 40 138 40q129 0 129 -134v-349zM259 107v143q-173 -22 -173 -130q0 -35 17.5 -54.5t46.5 -19.5q51 0 109 61z" />
    <glyph glyph-name="b" unicode="b" horiz-adv-x="413" 
d="M380 245q0 -125 -52.5 -187.5t-133.5 -62.5q-73 0 -144 30v681l64 12v-295q54 60 113 60q68 0 110.5 -59.5t42.5 -178.5zM316 244q0 90 -27.5 135.5t-71.5 45.5q-46 0 -103 -66v-292q41 -18 77 -18q125 0 125 195z" />
    <glyph glyph-name="c" unicode="c" horiz-adv-x="353" 
d="M327 36q-55 -44 -122 -44q-83 0 -129.5 66.5t-46.5 177.5t48.5 178.5t130.5 67.5q66 0 115 -40l-10 -64q-56 47 -107 47q-53 0 -82.5 -53t-29.5 -135q0 -84 30 -137t87 -53q50 0 107 48z" />
    <glyph glyph-name="d" unicode="d" horiz-adv-x="413" 
d="M363 0h-47l-10 58q-54 -67 -118 -67q-68 0 -111 59.5t-43 177.5q0 124 51.5 187.5t127.5 63.5q46 0 87 -18v245l63 12v-718zM300 114v291q-38 19 -78 19q-57 0 -91 -47t-34 -148q0 -90 27.5 -135.5t72.5 -45.5q46 0 103 66z" />
    <glyph glyph-name="e" unicode="e" horiz-adv-x="378" 
d="M350 248v-24h-257q2 -82 32.5 -130t83.5 -48q65 0 129 51l10 -57q-62 -49 -145 -49q-80 0 -127 66t-47 180q0 107 45.5 176.5t121.5 69.5q78 0 116 -65t38 -170zM286 273q-3 72 -27 115t-63 43q-42 0 -69 -44.5t-32 -113.5h191z" />
    <glyph glyph-name="f" unicode="f" horiz-adv-x="235" 
d="M232 651q-12 4 -41 4q-53 0 -53 -63v-119h79l10 -54h-89v-419h-62v419h-63v54h63v124q0 58 29.5 86.5t81.5 28.5q16 0 36 -4z" />
    <glyph glyph-name="g" unicode="g" horiz-adv-x="406" 
d="M192 -185q-77 0 -130.5 32.5t-53.5 88.5q0 77 99 128q-33 18 -33 50q0 30 38 63q-77 43 -77 143q0 70 43 115.5t109 45.5q60 0 101 -38l101 35l11 -62l-83 -10q22 -38 22 -86q0 -69 -43.5 -115t-108.5 -46q-17 0 -32 3q-19 -16 -19 -33q0 -14 17.5 -22.5t69.5 -20.5
q93 -20 129 -48.5t36 -80.5q0 -61 -57 -101.5t-139 -40.5zM187 208q42 0 66 32t24 80t-24.5 80t-65.5 32q-43 0 -66 -31t-23 -81q0 -47 23 -79.5t66 -32.5zM195 -135q59 0 95 25.5t36 59.5q0 31 -26.5 50t-98.5 33q-10 2 -26 6t-19 5q-85 -44 -85 -101q0 -34 33.5 -56
t90.5 -22z" />
    <glyph glyph-name="h" unicode="h" horiz-adv-x="396" 
d="M348 0h-64v354q0 72 -58 72q-47 0 -112 -65v-361h-64v706l64 12v-298q68 63 125 63q109 0 109 -115v-368z" />
    <glyph glyph-name="i" unicode="i" horiz-adv-x="179" 
d="M133 624q0 -19 -13 -32.5t-31 -13.5q-19 0 -31.5 13.5t-12.5 32.5q0 18 13 31.5t31 13.5t31 -13.5t13 -31.5zM121 0h-64v473h64v-473z" />
    <glyph glyph-name="j" unicode="j" horiz-adv-x="179" 
d="M133 624q0 -19 -13 -32.5t-31 -13.5q-19 0 -31.5 13.5t-12.5 32.5q0 18 13 31.5t31 13.5t31 -13.5t13 -31.5zM121 -80q0 -100 -97 -100q-22 0 -35 3l-10 57q24 -4 34 -4q44 0 44 51v546h64v-553z" />
    <glyph glyph-name="k" unicode="k" horiz-adv-x="349" 
d="M339 7l-67 -13l-160 257v-251h-62v706l62 12v-448l144 203h70l-155 -210z" />
    <glyph glyph-name="l" unicode="l" horiz-adv-x="179" 
d="M121 0h-64v706l64 12v-718z" />
    <glyph glyph-name="m" unicode="m" horiz-adv-x="619" 
d="M570 0h-62v356q0 70 -57 70q-45 0 -109 -64v-362h-63v356q0 70 -57 70q-46 0 -108 -64v-362h-64v473h47l10 -60q73 70 130 70q79 0 99 -68q73 68 129 68q105 0 105 -114v-369z" />
    <glyph glyph-name="n" unicode="n" horiz-adv-x="395" 
d="M348 0h-64v354q0 72 -58 72q-47 0 -112 -65v-361h-64v473h47l10 -60q72 70 132 70q109 0 109 -115v-368z" />
    <glyph glyph-name="o" unicode="o" horiz-adv-x="407" 
d="M379 237q0 -112 -47.5 -179t-129.5 -67q-81 0 -127 66.5t-46 178.5t46.5 179.5t127.5 67.5q82 0 129 -67t47 -179zM314 236q0 83 -29 137.5t-83 54.5t-81.5 -53.5t-27.5 -137.5q0 -83 28.5 -137.5t81.5 -54.5q55 0 83 53.5t28 137.5z" />
    <glyph glyph-name="p" unicode="p" horiz-adv-x="413" 
d="M380 245q0 -124 -51.5 -187t-127.5 -63q-46 0 -87 17v-184l-64 -11v656h47l10 -58q58 68 120 68q67 0 110 -60t43 -178zM316 244q0 90 -27.5 135.5t-71.5 45.5q-48 0 -103 -66v-291q37 -19 77 -19q125 0 125 195z" />
    <glyph glyph-name="q" unicode="q" horiz-adv-x="413" 
d="M363 -172l-63 -11v233q-54 -59 -111 -59q-68 0 -111.5 59.5t-43.5 177.5q0 125 52.5 188t133.5 63q68 0 143 -30v-621zM300 114v292q-43 18 -78 18q-57 0 -91 -47t-34 -148q0 -90 27.5 -135.5t72.5 -45.5q46 0 103 66z" />
    <glyph glyph-name="r" unicode="r" horiz-adv-x="256" 
d="M244 419q-42 -3 -76.5 -26.5t-53.5 -58.5v-334h-64v473h47l11 -73q52 77 126 81z" />
    <glyph glyph-name="s" unicode="s" horiz-adv-x="329" 
d="M302 121q0 -58 -39.5 -94t-105.5 -36q-74 0 -133 38l10 60q67 -44 126 -44q37 0 59 20t22 53q0 29 -18.5 51.5t-68.5 48.5q-64 32 -90.5 64t-26.5 80q0 49 35.5 85t93.5 36q66 0 112 -27l-10 -59q-51 31 -102 31q-30 0 -49 -17.5t-19 -44.5q0 -28 18.5 -49t69.5 -47
q63 -32 89.5 -65.5t26.5 -83.5z" />
    <glyph glyph-name="t" unicode="t" horiz-adv-x="261" 
d="M239 0q-28 -7 -53 -7q-110 0 -110 105v321h-63v54h63v164l62 11v-175h87l9 -54h-96v-311q0 -32 13 -45.5t45 -13.5q17 0 35 4z" />
    <glyph glyph-name="u" unicode="u" horiz-adv-x="396" 
d="M345 0h-47l-9 60q-73 -70 -132 -70q-109 0 -109 116v367h63v-354q0 -71 60 -71q47 0 111 64v361h63v-473z" />
    <glyph glyph-name="v" unicode="v" 
d="M350 473l-137 -477h-63l-136 472l63 12l106 -403l103 396h64z" />
    <glyph glyph-name="w" unicode="w" horiz-adv-x="580" 
d="M561 473l-127 -476h-55l-89 381l-91 -381h-55l-125 471l60 12l94 -388l90 383h55l91 -382l89 380h63z" />
    <glyph glyph-name="x" unicode="x" horiz-adv-x="372" 
d="M353 5l-62 -11l-105 196l-102 -190h-65l135 242l-126 226l60 12l100 -184l93 177h66l-127 -228z" />
    <glyph glyph-name="y" unicode="y" horiz-adv-x="371" 
d="M357 473l-164 -548q-16 -55 -44 -80t-74 -25q-12 0 -24 3l-11 56q20 -4 30 -4q48 0 67 59l19 61l-142 473l63 12l109 -403l106 396h65z" />
    <glyph glyph-name="z" unicode="z" horiz-adv-x="345" 
d="M322 0h-297v49l218 371h-196l-9 53h274v-49l-219 -371h220z" />
    <glyph glyph-name="braceleft" unicode="{" horiz-adv-x="408" 
d="M370 -105h-81q-72 0 -105.5 30.5t-33.5 93.5q0 21 8.5 70.5t8.5 74.5q0 104 -104 104h-19l-8 49h28q103 0 103 103q0 24 -8.5 73t-8.5 70q0 127 139 127h76v-50h-75q-80 0 -80 -75q0 -19 8.5 -70t8.5 -74q0 -58 -25 -87.5t-73 -40.5v-2q48 -11 73 -40t25 -88
q0 -23 -8.5 -74t-8.5 -70q0 -74 79 -74h73z" />
    <glyph glyph-name="bar" unicode="|" horiz-adv-x="204" 
d="M128 -180l-54 -9v902l54 9v-902z" />
    <glyph glyph-name="braceright" unicode="}" horiz-adv-x="408" 
d="M372 268h-27q-104 0 -104 -104q0 -24 8.5 -72.5t8.5 -70.5q0 -126 -139 -126h-76v50h75q80 0 80 75q0 19 -9 70t-9 73q0 59 25.5 88t73.5 40v2q-48 11 -73.5 40.5t-25.5 88.5q0 23 9 74t9 70q0 74 -79 74h-73l-8 50h81q72 0 105.5 -30.5t33.5 -92.5q0 -22 -8.5 -72
t-8.5 -74q0 -104 104 -104h19z" />
    <glyph glyph-name="asciitilde" unicode="~" horiz-adv-x="357" 
d="M307 329q-15 -102 -64 -102q-21 0 -62 23q-48 26 -57 26q-10 0 -16 -10.5t-13 -39.5l-42 9q12 102 61 102q26 0 73 -28q40 -21 49 -21q16 0 27 50z" />
    <glyph glyph-name="nbspace" unicode="&#xa0;" horiz-adv-x="89" 
 />
    <glyph glyph-name="exclamdown" unicode="&#xa1;" horiz-adv-x="207" 
d="M140 592h-73v98h73v-98zM141 0h-75l16 491l42 9z" />
    <glyph glyph-name="cent" unicode="&#xa2;" horiz-adv-x="367" 
d="M190 99l-17 -110l-45 10l17 111q-53 23 -82.5 83.5t-29.5 149.5q0 111 49.5 179.5t127.5 68.5h10l18 108l45 -10q-16 -104 -17 -104q34 -8 67 -34l-10 -60q-36 31 -66 41l-60 -380q14 -2 21 -2q56 0 108 47l10 -55q-55 -44 -128 -44q-12 0 -18 1zM155 169l58 370h-2
q-55 0 -86.5 -55t-31.5 -139q0 -131 62 -176z" />
    <glyph glyph-name="sterling" unicode="&#xa3;" horiz-adv-x="443" 
d="M129 369l50 187q20 76 59 111.5t105 35.5q35 0 68 -10l-6 -55q-45 9 -64 9q-45 0 -68 -24.5t-37 -75.5q-46 -178 -47 -178h143l8 -49h-163l-69 -266h279l7 -54h-351v43l73 277h-73v49h86z" />
    <glyph glyph-name="currency" unicode="&#xa4;" horiz-adv-x="473" 
d="M309 -11q-85 0 -139.5 66.5t-69.5 186.5h-72l-9 53h75q-1 16 -1 49q0 34 3 66h-73v53h79q18 113 72 175.5t136 62.5q80 0 133 -47l-10 -64q-61 54 -124 54q-57 0 -92.5 -48.5t-50.5 -132.5h181l9 -53h-195q-4 -28 -4 -64q0 -9 0.5 -26t0.5 -25h194v-53h-187
q12 -91 50 -143.5t98 -52.5q64 0 132 58l9 -62q-66 -53 -145 -53z" />
    <glyph glyph-name="yen" unicode="&#xa5;" horiz-adv-x="462" 
d="M260 251v-96h129v-50h-129v-105h-58v105h-123l-8 50h131v96h-127v51h117l-174 379l60 14l154 -351l151 346h66q-179 -388 -180 -388h116l7 -51h-132z" />
    <glyph glyph-name="brokenbar" unicode="&#xa6;" horiz-adv-x="500" 
d="M25 -200v1000h450v-1000h-450z" />
    <glyph glyph-name="section" unicode="&#xa7;" horiz-adv-x="408" 
d="M357 292l-53 10q10 26 10 40q0 27 -23.5 47t-76.5 40q-68 27 -102.5 57t-34.5 84q0 58 35 93t92 35q61 0 118 -32l-10 -60q-51 37 -105 37q-32 0 -51 -18t-19 -51q0 -31 20.5 -49t72.5 -40q31 -13 45 -19t37 -19t33 -25t18.5 -31t8.5 -42q0 -29 -15 -57zM209 -10
q-61 0 -116 34l11 58q54 -36 101 -36q32 0 52 18t20 51q0 30 -22 50t-71 39q-83 34 -107 55q-37 31 -37 81q0 38 14 62l52 -11q-9 -20 -9 -44q0 -29 23 -47.5t80 -39.5q65 -24 99 -54.5t34 -86.5q0 -58 -34 -93.5t-90 -35.5z" />
    <glyph glyph-name="dieresis" unicode="&#xa8;" 
d="M283 553h-66v90h66v-90zM147 553h-66v90h66v-90z" />
    <glyph glyph-name="copyright" unicode="&#xa9;" horiz-adv-x="631" 
d="M592 345q0 -158 -76.5 -257t-199.5 -99t-200 99t-77 257t77 257t199 99q124 0 200.5 -99t76.5 -257zM561 345q0 149 -69.5 238.5t-176.5 89.5t-175.5 -89.5t-68.5 -238.5t69.5 -238.5t176.5 -89.5q106 0 175 90t69 238zM411 175q-42 -33 -90 -33q-63 0 -97.5 56.5
t-34.5 148.5q0 93 34.5 150t99.5 57q44 0 82 -28l-6 -45q-42 33 -79 33q-41 0 -64 -45.5t-23 -119.5q0 -77 24 -121.5t67 -44.5q41 0 82 35z" />
    <glyph glyph-name="ordfeminine" unicode="&#xaa;" horiz-adv-x="277" 
d="M235 376h-37l-5 26q-37 -35 -76 -35q-34 0 -57 21.5t-23 63.5q0 98 150 122v27q0 27 -10.5 38.5t-32.5 11.5q-41 0 -79 -27l-5 44q44 26 92 26q83 0 83 -89v-229zM241 275h-195v43h187zM187 446v89q-101 -14 -101 -82q0 -43 37 -43q26 0 64 36z" />
    <glyph glyph-name="guillemotleft" unicode="&#xab;" horiz-adv-x="428" 
d="M391 473l-121 -236l120 -230l-49 -12l-140 242l138 236h52zM218 473l-123 -236l119 -230l-48 -12l-140 242l138 236h54z" />
    <glyph glyph-name="logicalnot" unicode="&#xac;" horiz-adv-x="452" 
d="M406 322h-362v52h362v-52z" />
    <glyph glyph-name="registered" unicode="&#xae;" horiz-adv-x="454" 
d="M420 491q0 -87 -53.5 -142t-138.5 -55q-86 0 -139.5 55t-53.5 143q0 87 54 142t139 55t138.5 -55.5t53.5 -142.5zM394 491q0 79 -47 127t-120 48t-119.5 -48t-46.5 -126q0 -79 47 -127t120 -48t119.5 48t46.5 126zM313 388l-31 -6l-64 100h-19v-97h-31v230h52
q34 0 55 -18t21 -48q0 -49 -46 -63zM265 548q0 40 -46 40h-20v-80h18q48 0 48 40z" />
    <glyph glyph-name="macron" unicode="&#xaf;" 
d="M280 575h-196v62h196v-62z" />
    <glyph glyph-name="degree" unicode="&#xb0;" horiz-adv-x="336" 
d="M292 572q0 -53 -35.5 -88t-88.5 -35t-89 35t-36 88t36 88.5t89 35.5t88.5 -35.5t35.5 -88.5zM244 573q0 33 -22 56t-55 23t-54.5 -23t-21.5 -56q0 -35 21.5 -58t55.5 -23q33 0 54.5 23t21.5 58z" />
    <glyph glyph-name="plusminus" unicode="&#xb1;" horiz-adv-x="442" 
d="M427 165h-84v-165h-60v165h-262v43l245 486l54 -13l-231 -462h194v192l60 14v-206h84v-54z" />
    <glyph glyph-name="twosuperior" unicode="&#xb2;" horiz-adv-x="500" 
d="M25 -200v1000h450v-1000h-450z" />
    <glyph glyph-name="threesuperior" unicode="&#xb3;" horiz-adv-x="500" 
d="M25 -200v1000h450v-1000h-450z" />
    <glyph glyph-name="acute" unicode="&#xb4;" 
d="M267 684l-110 -135h-46l80 154z" />
    <glyph glyph-name="mu" unicode="&#xb5;" horiz-adv-x="452" 
d="M355 166l-130 147l-131 -146l-32 36l130 143l-131 145l34 37l131 -146l130 146l33 -35l-131 -145l132 -144z" />
    <glyph glyph-name="paragraph" unicode="&#xb6;" horiz-adv-x="417" 
d="M355 0h-66v632h-68v-141l-37 -197q-74 11 -120 58.5t-46 135.5q0 94 60 148t156 54h121v-690z" />
    <glyph glyph-name="periodcentered" unicode="&#xb7;" horiz-adv-x="163" 
d="M118 259h-73v98h73v-98z" />
    <glyph glyph-name="cedilla" unicode="&#xb8;" 
d="M240 -70l-97 -114h-42l69 134z" />
    <glyph glyph-name="onesuperior" unicode="&#xb9;" horiz-adv-x="500" 
d="M25 -200v1000h450v-1000h-450z" />
    <glyph glyph-name="ordmasculine" unicode="&#xba;" horiz-adv-x="287" 
d="M260 532q0 -75 -31.5 -119.5t-87.5 -44.5t-85.5 44t-29.5 120q0 75 29.5 118.5t85.5 43.5t87.5 -44t31.5 -118zM245 275h-199v43h192zM211 532q0 54 -17.5 88.5t-52.5 34.5q-68 0 -68 -123q0 -55 17 -88.5t52 -33.5q69 0 69 122z" />
    <glyph glyph-name="guillemotright" unicode="&#xbb;" horiz-adv-x="428" 
d="M402 236l-138 -236h-54l123 236l-120 231l49 12zM227 236l-138 -236h-52l121 236l-120 231l49 12z" />
    <glyph glyph-name="onequarter" unicode="&#xbc;" horiz-adv-x="500" 
d="M25 -200v1000h450v-1000h-450z" />
    <glyph glyph-name="onehalf" unicode="&#xbd;" horiz-adv-x="500" 
d="M25 -200v1000h450v-1000h-450z" />
    <glyph glyph-name="threequarters" unicode="&#xbe;" horiz-adv-x="500" 
d="M25 -200v1000h450v-1000h-450z" />
    <glyph glyph-name="questiondown" unicode="&#xbf;" horiz-adv-x="380" 
d="M246 592h-73v98h73v-98zM357 49q-75 -60 -159 -60q-75 0 -120 45t-45 122q0 69 36 113.5t110 91.5l10 130l41 9l12 -169l-21 -12q-64 -38 -92.5 -73t-28.5 -86t27.5 -81.5t74.5 -30.5q68 0 146 63z" />
    <glyph glyph-name="Agrave" unicode="&#xc0;" horiz-adv-x="485" 
d="M467 8l-63 -14l-61 230h-200l-58 -224h-65l190 694h70zM328 282l-85 325l-85 -325h170zM273 735h-45l-109 135l76 19z" />
    <glyph glyph-name="Aacute" unicode="&#xc1;" horiz-adv-x="485" 
d="M379 870l-110 -135h-46l80 154zM467 8l-63 -14l-61 230h-200l-58 -224h-65l190 694h70zM328 282l-85 325l-85 -325h170z" />
    <glyph glyph-name="Acircumflex" unicode="&#xc2;" horiz-adv-x="485" 
d="M467 8l-63 -14l-61 230h-200l-58 -224h-65l190 694h70zM328 282l-85 325l-85 -325h170zM348 731l-36 -8l-67 85l-60 -83h-45l84 146h44z" />
    <glyph glyph-name="Atilde" unicode="&#xc3;" horiz-adv-x="485" 
d="M467 8l-63 -14l-61 230h-200l-58 -224h-65l190 694h70zM328 282l-85 325l-85 -325h170zM374 841q-7 -50 -24 -76.5t-40 -26.5q-20 0 -62 23q-46 27 -57 27q-10 0 -15.5 -10.5t-13.5 -40.5l-42 10q12 102 61 102q24 0 73 -28q38 -22 49 -22q17 0 28 51z" />
    <glyph glyph-name="Adieresis" unicode="&#xc4;" horiz-adv-x="485" 
d="M467 8l-63 -14l-61 230h-200l-58 -224h-65l190 694h70zM328 282l-85 325l-85 -325h170zM348 739h-66v90h66v-90zM212 739h-66v90h66v-90z" />
    <glyph glyph-name="Aring" unicode="&#xc5;" horiz-adv-x="485" 
d="M467 8l-63 -14l-61 230h-200l-58 -224h-65l190 694h70zM328 282l-85 325l-85 -325h170zM331 822q0 -37 -24.5 -61.5t-61.5 -24.5q-39 0 -64 24t-25 62t25 62.5t64 24.5q37 0 61.5 -25t24.5 -62zM291 822q0 21 -13 35.5t-33 14.5q-21 0 -34.5 -14.5t-13.5 -35.5
q0 -22 13.5 -36t34.5 -14q20 0 33 14t13 36z" />
    <glyph glyph-name="AE" unicode="&#xc6;" horiz-adv-x="682" 
d="M655 0h-300v224h-179l-95 -224h-66l300 690h330v-59h-225v-240h177l10 -59h-187v-273h235v-59zM355 282v360l-154 -360h154z" />
    <glyph glyph-name="Ccedilla" unicode="&#xc7;" horiz-adv-x="448" 
d="M423 47q-72 -58 -156 -58q-109 0 -169.5 96.5t-60.5 258.5t60.5 259.5t170.5 97.5q81 0 144 -50l-10 -68q-38 31 -67.5 44.5t-67.5 13.5q-81 0 -122 -82t-41 -213q0 -132 43 -214.5t123 -82.5q70 0 144 63zM314 -65l-97 -114h-42l69 134z" />
    <glyph glyph-name="Egrave" unicode="&#xc8;" horiz-adv-x="397" 
d="M371 0h-309v690h299v-59h-233v-240h184l10 -59h-194v-273h243v-59zM251 735h-45l-109 135l76 19z" />
    <glyph glyph-name="Eacute" unicode="&#xc9;" horiz-adv-x="397" 
d="M371 0h-309v690h299v-59h-233v-240h184l10 -59h-194v-273h243v-59zM338 870l-110 -135h-46l80 154z" />
    <glyph glyph-name="Ecircumflex" unicode="&#xca;" horiz-adv-x="397" 
d="M371 0h-309v690h299v-59h-233v-240h184l10 -59h-194v-273h243v-59zM317 741l-36 -8l-67 85l-60 -83h-45l84 146h44z" />
    <glyph glyph-name="Edieresis" unicode="&#xcb;" horiz-adv-x="397" 
d="M371 0h-309v690h299v-59h-233v-240h184l10 -59h-194v-273h243v-59zM310 739h-66v90h66v-90zM174 739h-66v90h66v-90z" />
    <glyph glyph-name="Igrave" unicode="&#xcc;" horiz-adv-x="204" 
d="M135 0h-66v690h66v-690zM124 735h-45l-109 135l76 19z" />
    <glyph glyph-name="Iacute" unicode="&#xcd;" horiz-adv-x="204" 
d="M236 870l-110 -135h-46l80 154zM135 0h-66v690h66v-690z" />
    <glyph glyph-name="Icircumflex" unicode="&#xce;" horiz-adv-x="204" 
d="M135 0h-66v690h66v-690zM206 732l-36 -8l-67 85l-60 -83h-45l84 146h44z" />
    <glyph glyph-name="Idieresis" unicode="&#xcf;" horiz-adv-x="204" 
d="M135 0h-66v690h66v-690zM205 739h-66v90h66v-90zM69 739h-66v90h66v-90z" />
    <glyph glyph-name="Eth" unicode="&#xd0;" horiz-adv-x="505" 
d="M467 347q0 -163 -73.5 -255t-213.5 -92h-107v331h-57l-10 61h67v298h107q142 0 214.5 -91t72.5 -252zM400 345q0 138 -56.5 212.5t-157.5 74.5h-47v-240h128v-61h-128v-273h47q101 0 157.5 73.5t56.5 213.5z" />
    <glyph glyph-name="Ntilde" unicode="&#xd1;" horiz-adv-x="503" 
d="M441 0h-51l-267 554v-554h-61v690h63l255 -539v539h61v-690zM389 837q-7 -50 -24 -76.5t-40 -26.5q-20 0 -62 23q-46 27 -57 27q-10 0 -15.5 -10.5t-13.5 -40.5l-42 10q12 102 61 102q24 0 73 -28q38 -22 49 -22q17 0 28 51z" />
    <glyph glyph-name="Ograve" unicode="&#xd2;" horiz-adv-x="529" 
d="M492 346q0 -162 -59.5 -259.5t-168.5 -97.5t-168 96.5t-59 258.5t59.5 259.5t168.5 97.5t168 -96.5t59 -258.5zM426 344q0 132 -41.5 215t-120.5 83q-80 0 -120 -81.5t-40 -214.5t40.5 -215.5t120.5 -82.5t120.5 82t40.5 214zM294 743h-45l-109 135l76 19z" />
    <glyph glyph-name="Oacute" unicode="&#xd3;" horiz-adv-x="529" 
d="M405 880l-110 -135h-46l80 154zM492 346q0 -162 -59.5 -259.5t-168.5 -97.5t-168 96.5t-59 258.5t59.5 259.5t168.5 97.5t168 -96.5t59 -258.5zM426 344q0 132 -41.5 215t-120.5 83q-80 0 -120 -81.5t-40 -214.5t40.5 -215.5t120.5 -82.5t120.5 82t40.5 214z" />
    <glyph glyph-name="Ocircumflex" unicode="&#xd4;" horiz-adv-x="529" 
d="M492 346q0 -162 -59.5 -259.5t-168.5 -97.5t-168 96.5t-59 258.5t59.5 259.5t168.5 97.5t168 -96.5t59 -258.5zM426 344q0 132 -41.5 215t-120.5 83q-80 0 -120 -81.5t-40 -214.5t40.5 -215.5t120.5 -82.5t120.5 82t40.5 214zM371 746l-36 -8l-67 85l-60 -83h-45l84 146
h44z" />
    <glyph glyph-name="Otilde" unicode="&#xd5;" horiz-adv-x="529" 
d="M492 346q0 -162 -59.5 -259.5t-168.5 -97.5t-168 96.5t-59 258.5t59.5 259.5t168.5 97.5t168 -96.5t59 -258.5zM426 344q0 132 -41.5 215t-120.5 83q-80 0 -120 -81.5t-40 -214.5t40.5 -215.5t120.5 -82.5t120.5 82t40.5 214zM391 855q-7 -50 -24 -76.5t-40 -26.5
q-20 0 -62 23q-46 27 -57 27q-10 0 -15.5 -10.5t-13.5 -40.5l-42 10q12 102 61 102q24 0 73 -28q38 -22 49 -22q17 0 28 51z" />
    <glyph glyph-name="Odieresis" unicode="&#xd6;" horiz-adv-x="529" 
d="M492 346q0 -162 -59.5 -259.5t-168.5 -97.5t-168 96.5t-59 258.5t59.5 259.5t168.5 97.5t168 -96.5t59 -258.5zM426 344q0 132 -41.5 215t-120.5 83q-80 0 -120 -81.5t-40 -214.5t40.5 -215.5t120.5 -82.5t120.5 82t40.5 214zM371 749h-66v90h66v-90zM235 749h-66v90h66
v-90z" />
    <glyph glyph-name="multiply" unicode="&#xd7;" horiz-adv-x="500" 
d="M25 -200v1000h450v-1000h-450z" />
    <glyph glyph-name="Oslash" unicode="&#xd8;" horiz-adv-x="529" 
d="M506 687l-62 -102q48 -91 48 -239q0 -162 -59.5 -259.5t-168.5 -97.5q-85 0 -143 64l-37 -61l-54 13l58 95q-51 93 -51 244q0 162 59.5 259.5t168.5 97.5q88 0 147 -68l39 65zM377 574q-41 68 -113 68q-80 0 -120 -81.5t-40 -214.5q0 -110 26 -181zM426 344
q0 104 -25 175l-245 -408q39 -63 109 -63q80 0 120.5 81.5t40.5 214.5z" />
    <glyph glyph-name="Ugrave" unicode="&#xd9;" horiz-adv-x="497" 
d="M438 211q0 -104 -49.5 -162t-141.5 -58q-95 0 -142.5 57t-47.5 160v482h67v-476q0 -164 124 -164q125 0 125 163v477h65v-479zM297 727h-45l-109 135l76 19z" />
    <glyph glyph-name="Uacute" unicode="&#xda;" horiz-adv-x="497" 
d="M368 862l-110 -135h-46l80 154zM438 211q0 -104 -49.5 -162t-141.5 -58q-95 0 -142.5 57t-47.5 160v482h67v-476q0 -164 124 -164q125 0 125 163v477h65v-479z" />
    <glyph glyph-name="Ucircumflex" unicode="&#xdb;" horiz-adv-x="497" 
d="M438 211q0 -104 -49.5 -162t-141.5 -58q-95 0 -142.5 57t-47.5 160v482h67v-476q0 -164 124 -164q125 0 125 163v477h65v-479zM360 737l-36 -8l-67 85l-60 -83h-45l84 146h44z" />
    <glyph glyph-name="Udieresis" unicode="&#xdc;" horiz-adv-x="497" 
d="M438 211q0 -104 -49.5 -162t-141.5 -58q-95 0 -142.5 57t-47.5 160v482h67v-476q0 -164 124 -164q125 0 125 163v477h65v-479zM355 735h-66v90h66v-90zM219 735h-66v90h66v-90z" />
    <glyph glyph-name="Yacute" unicode="&#xdd;" horiz-adv-x="458" 
d="M449 690l-187 -409v-281h-65v280l-184 402l66 13l151 -347l150 342h69zM356 857l-110 -135h-46l80 154z" />
    <glyph glyph-name="Thorn" unicode="&#xde;" horiz-adv-x="425" 
d="M399 356q0 -96 -60.5 -149t-164.5 -53h-46v-154h-66v690h66v-137h59q101 0 156.5 -52.5t55.5 -144.5zM333 355q0 140 -150 140h-55v-283h50q78 0 116.5 37.5t38.5 105.5z" />
    <glyph glyph-name="germandbls" unicode="&#xdf;" horiz-adv-x="483" 
d="M460 135q0 -71 -39 -107t-104 -36q-61 0 -111 29l10 59q54 -33 102 -33q37 0 58.5 22.5t21.5 62.5q0 57 -46.5 101t-133.5 72l-7 49q85 98 85 203q0 45 -20.5 73t-57.5 28q-40 0 -59 -32t-19 -83v-543h-64v419h-63v54h63v70q0 80 37 124.5t103 44.5q70 0 107 -41t37 -113
q0 -103 -87 -210q187 -78 187 -213z" />
    <glyph glyph-name="agrave" unicode="&#xe0;" horiz-adv-x="370" 
d="M322 0h-47l-8 53q-60 -62 -127 -62q-51 0 -84 32.5t-33 93.5q0 153 236 184v43q0 82 -76 82q-55 0 -119 -41l-9 58q73 40 138 40q129 0 129 -134v-349zM259 107v143q-173 -22 -173 -130q0 -35 17.5 -54.5t46.5 -19.5q51 0 109 61zM222 522h-45l-109 135l76 19z" />
    <glyph glyph-name="aacute" unicode="&#xe1;" horiz-adv-x="370" 
d="M322 0h-47l-8 53q-60 -62 -127 -62q-51 0 -84 32.5t-33 93.5q0 153 236 184v43q0 82 -76 82q-55 0 -119 -41l-9 58q73 40 138 40q129 0 129 -134v-349zM259 107v143q-173 -22 -173 -130q0 -35 17.5 -54.5t46.5 -19.5q51 0 109 61zM305 657l-110 -135h-46l80 154z" />
    <glyph glyph-name="acircumflex" unicode="&#xe2;" horiz-adv-x="370" 
d="M322 0h-47l-8 53q-60 -62 -127 -62q-51 0 -84 32.5t-33 93.5q0 153 236 184v43q0 82 -76 82q-55 0 -119 -41l-9 58q73 40 138 40q129 0 129 -134v-349zM259 107v143q-173 -22 -173 -130q0 -35 17.5 -54.5t46.5 -19.5q51 0 109 61zM291 529l-36 -8l-67 85l-60 -83h-45
l84 146h44z" />
    <glyph glyph-name="atilde" unicode="&#xe3;" horiz-adv-x="370" 
d="M322 0h-47l-8 53q-60 -62 -127 -62q-51 0 -84 32.5t-33 93.5q0 153 236 184v43q0 82 -76 82q-55 0 -119 -41l-9 58q73 40 138 40q129 0 129 -134v-349zM259 107v143q-173 -22 -173 -130q0 -35 17.5 -54.5t46.5 -19.5q51 0 109 61zM310 627q-7 -50 -24 -76.5t-40 -26.5
q-20 0 -62 23q-46 27 -57 27q-10 0 -15.5 -10.5t-13.5 -40.5l-42 10q12 102 61 102q24 0 73 -28q38 -22 49 -22q17 0 28 51z" />
    <glyph glyph-name="adieresis" unicode="&#xe4;" horiz-adv-x="370" 
d="M322 0h-47l-8 53q-60 -62 -127 -62q-51 0 -84 32.5t-33 93.5q0 153 236 184v43q0 82 -76 82q-55 0 -119 -41l-9 58q73 40 138 40q129 0 129 -134v-349zM259 107v143q-173 -22 -173 -130q0 -35 17.5 -54.5t46.5 -19.5q51 0 109 61zM286 527h-66v90h66v-90zM150 527h-66v90
h66v-90z" />
    <glyph glyph-name="aring" unicode="&#xe5;" horiz-adv-x="370" 
d="M322 0h-47l-8 53q-60 -62 -127 -62q-51 0 -84 32.5t-33 93.5q0 153 236 184v43q0 82 -76 82q-55 0 -119 -41l-9 58q73 40 138 40q129 0 129 -134v-349zM259 107v143q-173 -22 -173 -130q0 -35 17.5 -54.5t46.5 -19.5q51 0 109 61zM272 606q0 -37 -24.5 -61.5t-61.5 -24.5
q-39 0 -64 24t-25 62t25 62.5t64 24.5q37 0 61.5 -25t24.5 -62zM232 606q0 21 -13 35.5t-33 14.5q-21 0 -34.5 -14.5t-13.5 -35.5q0 -22 13.5 -36t34.5 -14q20 0 33 14t13 36z" />
    <glyph glyph-name="ae" unicode="&#xe6;" horiz-adv-x="604" 
d="M575 248v-24h-257q3 -82 33.5 -130t82.5 -48q65 0 129 51l10 -57q-60 -49 -145 -49q-88 0 -135 78q-72 -78 -150 -78q-51 0 -85.5 32.5t-34.5 93.5q0 79 59.5 123.5t176.5 60.5v43q0 82 -76 82q-55 0 -119 -41l-9 58q73 40 138 40q43 0 73 -19t40 -53q45 72 116 72
q78 0 115.5 -65t37.5 -170zM515 273q-3 72 -27 115t-63 43q-42 0 -69 -44.5t-32 -113.5h191zM272 116q-17 48 -17 120v14q-169 -27 -169 -130q0 -35 18.5 -54.5t47.5 -19.5q63 0 120 70z" />
    <glyph glyph-name="ccedilla" unicode="&#xe7;" horiz-adv-x="353" 
d="M327 36q-55 -44 -122 -44q-83 0 -129.5 66.5t-46.5 177.5t48.5 178.5t130.5 67.5q66 0 115 -40l-10 -64q-56 47 -107 47q-53 0 -82.5 -53t-29.5 -135q0 -84 30 -137t87 -53q50 0 107 48zM252 -51l-97 -114h-42l69 134z" />
    <glyph glyph-name="egrave" unicode="&#xe8;" horiz-adv-x="378" 
d="M350 248v-24h-257q2 -82 32.5 -130t83.5 -48q65 0 129 51l10 -57q-62 -49 -145 -49q-80 0 -127 66t-47 180q0 107 45.5 176.5t121.5 69.5q78 0 116 -65t38 -170zM286 273q-3 72 -27 115t-63 43q-42 0 -69 -44.5t-32 -113.5h191zM232 522h-45l-109 135l76 19z" />
    <glyph glyph-name="eacute" unicode="&#xe9;" horiz-adv-x="378" 
d="M350 248v-24h-257q2 -82 32.5 -130t83.5 -48q65 0 129 51l10 -57q-62 -49 -145 -49q-80 0 -127 66t-47 180q0 107 45.5 176.5t121.5 69.5q78 0 116 -65t38 -170zM286 273q-3 72 -27 115t-63 43q-42 0 -69 -44.5t-32 -113.5h191zM313 657l-110 -135h-46l80 154z" />
    <glyph glyph-name="ecircumflex" unicode="&#xea;" horiz-adv-x="378" 
d="M350 248v-24h-257q2 -82 32.5 -130t83.5 -48q65 0 129 51l10 -57q-62 -49 -145 -49q-80 0 -127 66t-47 180q0 107 45.5 176.5t121.5 69.5q78 0 116 -65t38 -170zM286 273q-3 72 -27 115t-63 43q-42 0 -69 -44.5t-32 -113.5h191zM296 528l-36 -8l-67 85l-60 -83h-45
l84 146h44z" />
    <glyph glyph-name="edieresis" unicode="&#xeb;" horiz-adv-x="378" 
d="M350 248v-24h-257q2 -82 32.5 -130t83.5 -48q65 0 129 51l10 -57q-62 -49 -145 -49q-80 0 -127 66t-47 180q0 107 45.5 176.5t121.5 69.5q78 0 116 -65t38 -170zM286 273q-3 72 -27 115t-63 43q-42 0 -69 -44.5t-32 -113.5h191zM296 526h-66v90h66v-90zM160 526h-66v90
h66v-90z" />
    <glyph glyph-name="igrave" unicode="&#xec;" horiz-adv-x="179" 
d="M121 0h-64v473h64v-473zM104 522h-45l-109 135l76 19z" />
    <glyph glyph-name="iacute" unicode="&#xed;" horiz-adv-x="179" 
d="M121 0h-64v473h64v-473zM225 657l-110 -135h-46l80 154z" />
    <glyph glyph-name="icircumflex" unicode="&#xee;" horiz-adv-x="179" 
d="M121 0h-64v473h64v-473zM192 528l-36 -8l-67 85l-60 -83h-45l84 146h44z" />
    <glyph glyph-name="idieresis" unicode="&#xef;" horiz-adv-x="179" 
d="M121 0h-64v473h64v-473zM192 526h-66v90h66v-90zM56 526h-66v90h66v-90z" />
    <glyph glyph-name="eth" unicode="&#xf0;" horiz-adv-x="415" 
d="M380 307q0 -198 -77 -275q-41 -41 -103 -41q-70 0 -118 59.5t-48 169.5q0 99 48.5 163t119.5 64q57 0 105 -38q-17 98 -76 165l-42 -63h-57l64 97q-39 31 -93 53l11 57q68 -25 114 -61l40 61l52 -12l-55 -82q115 -115 115 -317zM315 343q-49 48 -108 48q-46 0 -78 -46
t-32 -123q0 -82 31 -129t74 -47q51 0 82.5 63.5t31.5 197.5q0 6 -0.5 18t-0.5 18z" />
    <glyph glyph-name="ntilde" unicode="&#xf1;" horiz-adv-x="395" 
d="M348 0h-64v354q0 72 -58 72q-47 0 -112 -65v-361h-64v473h47l10 -60q72 70 132 70q109 0 109 -115v-368zM325 628q-7 -50 -24 -76.5t-40 -26.5q-20 0 -62 23q-46 27 -57 27q-10 0 -15.5 -10.5t-13.5 -40.5l-42 10q12 102 61 102q24 0 73 -28q38 -22 49 -22q17 0 28 51z
" />
    <glyph glyph-name="ograve" unicode="&#xf2;" horiz-adv-x="407" 
d="M379 237q0 -112 -47.5 -179t-129.5 -67q-81 0 -127 66.5t-46 178.5t46.5 179.5t127.5 67.5q82 0 129 -67t47 -179zM314 236q0 83 -29 137.5t-83 54.5t-81.5 -53.5t-27.5 -137.5q0 -83 28.5 -137.5t81.5 -54.5q55 0 83 53.5t28 137.5zM236 522h-45l-109 135l76 19z" />
    <glyph glyph-name="oacute" unicode="&#xf3;" horiz-adv-x="407" 
d="M330 657l-110 -135h-46l80 154zM379 237q0 -112 -47.5 -179t-129.5 -67q-81 0 -127 66.5t-46 178.5t46.5 179.5t127.5 67.5q82 0 129 -67t47 -179zM314 236q0 83 -29 137.5t-83 54.5t-81.5 -53.5t-27.5 -137.5q0 -83 28.5 -137.5t81.5 -54.5q55 0 83 53.5t28 137.5z" />
    <glyph glyph-name="ocircumflex" unicode="&#xf4;" horiz-adv-x="407" 
d="M379 237q0 -112 -47.5 -179t-129.5 -67q-81 0 -127 66.5t-46 178.5t46.5 179.5t127.5 67.5q82 0 129 -67t47 -179zM314 236q0 83 -29 137.5t-83 54.5t-81.5 -53.5t-27.5 -137.5q0 -83 28.5 -137.5t81.5 -54.5q55 0 83 53.5t28 137.5zM305 528l-36 -8l-67 85l-60 -83h-45
l84 146h44z" />
    <glyph glyph-name="otilde" unicode="&#xf5;" horiz-adv-x="407" 
d="M379 237q0 -112 -47.5 -179t-129.5 -67q-81 0 -127 66.5t-46 178.5t46.5 179.5t127.5 67.5q82 0 129 -67t47 -179zM314 236q0 83 -29 137.5t-83 54.5t-81.5 -53.5t-27.5 -137.5q0 -83 28.5 -137.5t81.5 -54.5q55 0 83 53.5t28 137.5zM334 628q-7 -50 -24 -76.5t-40 -26.5
q-20 0 -62 23q-46 27 -57 27q-10 0 -15.5 -10.5t-13.5 -40.5l-42 10q12 102 61 102q24 0 73 -28q38 -22 49 -22q17 0 28 51z" />
    <glyph glyph-name="odieresis" unicode="&#xf6;" horiz-adv-x="407" 
d="M379 237q0 -112 -47.5 -179t-129.5 -67q-81 0 -127 66.5t-46 178.5t46.5 179.5t127.5 67.5q82 0 129 -67t47 -179zM314 236q0 83 -29 137.5t-83 54.5t-81.5 -53.5t-27.5 -137.5q0 -83 28.5 -137.5t81.5 -54.5q55 0 83 53.5t28 137.5zM304 526h-66v90h66v-90zM168 526h-66
v90h66v-90z" />
    <glyph glyph-name="divide" unicode="&#xf7;" horiz-adv-x="451" 
d="M258 467h-65v82h65v-82zM406 321h-362v53h362v-53zM258 147h-65v81h65v-81z" />
    <glyph glyph-name="oslash" unicode="&#xf8;" horiz-adv-x="407" 
d="M382 469l-42 -65q39 -66 39 -167q0 -112 -47.5 -179t-128.5 -67q-59 0 -102 38l-23 -35l-49 11l40 62q-40 66 -40 169q0 112 47 179.5t128 67.5q60 0 104 -41l26 39zM276 389q-28 39 -73 39q-54 0 -82 -53.5t-28 -137.5q0 -63 17 -109zM299 342l-165 -261q28 -36 70 -36
q54 0 82 53.5t28 137.5q0 65 -15 106z" />
    <glyph glyph-name="ugrave" unicode="&#xf9;" horiz-adv-x="396" 
d="M345 0h-47l-9 60q-73 -70 -132 -70q-109 0 -109 116v367h63v-354q0 -71 60 -71q47 0 111 64v361h63v-473zM234 522h-45l-109 135l76 19z" />
    <glyph glyph-name="uacute" unicode="&#xfa;" horiz-adv-x="396" 
d="M345 0h-47l-9 60q-73 -70 -132 -70q-109 0 -109 116v367h63v-354q0 -71 60 -71q47 0 111 64v361h63v-473zM318 657l-110 -135h-46l80 154z" />
    <glyph glyph-name="ucircumflex" unicode="&#xfb;" horiz-adv-x="396" 
d="M345 0h-47l-9 60q-73 -70 -132 -70q-109 0 -109 116v367h63v-354q0 -71 60 -71q47 0 111 64v361h63v-473zM298 528l-36 -8l-67 85l-60 -83h-45l84 146h44z" />
    <glyph glyph-name="udieresis" unicode="&#xfc;" horiz-adv-x="396" 
d="M345 0h-47l-9 60q-73 -70 -132 -70q-109 0 -109 116v367h63v-354q0 -71 60 -71q47 0 111 64v361h63v-473zM295 526h-66v90h66v-90zM159 526h-66v90h66v-90z" />
    <glyph glyph-name="yacute" unicode="&#xfd;" horiz-adv-x="371" 
d="M357 473l-164 -548q-16 -55 -44 -80t-74 -25q-12 0 -24 3l-11 56q20 -4 30 -4q48 0 67 59l19 61l-142 473l63 12l109 -403l106 396h65zM307 650l-110 -135h-46l80 154z" />
    <glyph glyph-name="thorn" unicode="&#xfe;" horiz-adv-x="413" 
d="M380 245q0 -124 -51.5 -187t-127.5 -63q-46 0 -87 17v-184l-64 -11v889l64 12v-295q54 60 113 60q68 0 110.5 -59.5t42.5 -178.5zM316 244q0 90 -27.5 135.5t-71.5 45.5q-46 0 -103 -66v-291q37 -19 77 -19q125 0 125 195z" />
    <glyph glyph-name="ydieresis" unicode="&#xff;" horiz-adv-x="371" 
d="M357 473l-164 -548q-16 -55 -44 -80t-74 -25q-12 0 -24 3l-11 56q20 -4 30 -4q48 0 67 59l19 61l-142 473l63 12l109 -403l106 396h65zM288 526h-66v90h66v-90zM152 526h-66v90h66v-90z" />
    <glyph glyph-name="dotlessi" unicode="&#x131;" horiz-adv-x="179" 
d="M121 0h-64v473h64v-473z" />
    <glyph glyph-name="Lslash" unicode="&#x141;" horiz-adv-x="417" 
d="M395 0h-312v318l-67 -18l-10 59l77 20v311h68v-294l134 34v-61l-134 -35v-273h235z" />
    <glyph glyph-name="lslash" unicode="&#x142;" horiz-adv-x="226" 
d="M220 373l-75 -19v-354h-64v338l-68 -17l-10 57l78 20v308l64 12v-304l75 19v-60z" />
    <glyph glyph-name="OE" unicode="&#x152;" horiz-adv-x="680" 
d="M654 0h-329q-142 0 -214.5 91t-72.5 252q0 163 73.5 255t212.5 92h320v-59h-225v-240h176l10 -59h-186v-273h235v-59zM353 58v574h-36q-101 0 -157.5 -73.5t-56.5 -213.5q0 -137 56.5 -212t157.5 -75h36z" />
    <glyph glyph-name="oe" unicode="&#x153;" horiz-adv-x="662" 
d="M634 248v-24h-257q2 -82 32 -130t84 -48q63 0 129 51l10 -57q-62 -49 -145 -49q-50 0 -88 28t-54 76q-42 -104 -143 -104q-81 0 -127 66.5t-46 178.5t46.5 179.5t127.5 67.5q50 0 87 -28t56 -80q18 51 53 79.5t81 28.5q78 0 116 -65t38 -170zM570 273q-3 72 -27 115
t-63 43q-42 0 -69 -44.5t-32 -113.5h191zM314 237q0 81 -29 136t-83 55t-81.5 -53.5t-27.5 -137.5q0 -83 28.5 -137.5t81.5 -54.5q55 0 83 53.5t28 138.5z" />
    <glyph glyph-name="Scaron" unicode="&#x160;" horiz-adv-x="392" 
d="M361 167q0 -78 -49 -126t-130 -48t-146 38l10 64q69 -44 139 -44q51 0 81 30.5t30 81.5q0 45 -24.5 81t-86.5 83q-73 55 -105 98.5t-32 110.5q0 70 46 115.5t116 45.5q66 0 118 -29l-10 -65q-53 36 -108 36q-45 0 -71 -28t-26 -71q0 -44 24.5 -75.5t86.5 -78.5
q74 -56 105.5 -103.5t31.5 -115.5zM299 890l-83 -145h-44l-81 139l36 9l68 -85l60 82h44z" />
    <glyph glyph-name="scaron" unicode="&#x161;" horiz-adv-x="329" 
d="M302 121q0 -58 -39.5 -94t-105.5 -36q-74 0 -133 38l10 60q67 -44 126 -44q37 0 59 20t22 53q0 29 -18.5 51.5t-68.5 48.5q-64 32 -90.5 64t-26.5 80q0 49 35.5 85t93.5 36q66 0 112 -27l-10 -59q-51 31 -102 31q-30 0 -49 -17.5t-19 -44.5q0 -28 18.5 -49t69.5 -47
q63 -32 89.5 -65.5t26.5 -83.5zM266 667l-83 -145h-44l-81 139l36 9l68 -85l60 82h44z" />
    <glyph glyph-name="Ydieresis" unicode="&#x178;" horiz-adv-x="458" 
d="M449 690l-187 -409v-281h-65v280l-184 402l66 13l151 -347l150 342h69zM337 735h-66v90h66v-90zM201 735h-66v90h66v-90z" />
    <glyph glyph-name="Zcaron" unicode="&#x17d;" horiz-adv-x="426" 
d="M400 0h-366v47l290 586h-263l-9 57h344v-47l-289 -586h284zM340 880l-83 -145h-44l-81 139l36 9l68 -85l60 82h44z" />
    <glyph glyph-name="zcaron" unicode="&#x17e;" horiz-adv-x="345" 
d="M322 0h-297v49l218 371h-196l-9 53h274v-49l-219 -371h220zM287 668l-83 -145h-44l-81 139l36 9l68 -85l60 82h44z" />
    <glyph glyph-name="florin" unicode="&#x192;" horiz-adv-x="369" 
d="M139 462l17 105q11 71 46 101t100 30q20 0 38 -2v-56q-13 4 -44 4q-30 0 -51 -18.5t-27 -54.5l-18 -109h98v-51h-106l-66 -411h-60l65 411h-70l8 51h70z" />
    <glyph glyph-name="circumflex" unicode="&#x2c6;" 
d="M279 555l-36 -8l-67 85l-60 -83h-45l84 146h44z" />
    <glyph glyph-name="caron" unicode="&#x2c7;" 
d="M279 694l-83 -145h-44l-81 139l36 9l68 -85l60 82h44z" />
    <glyph glyph-name="breve" unicode="&#x2d8;" 
d="M277 695q-6 -144 -98 -144q-43 0 -68 36t-28 101l46 10q8 -89 53 -89q22 0 35.5 23t15.5 63h44z" />
    <glyph glyph-name="dotaccent" unicode="&#x2d9;" 
d="M217 553h-71v91h71v-91z" />
    <glyph glyph-name="ring" unicode="&#x2da;" 
d="M269 636q0 -37 -24.5 -61.5t-61.5 -24.5q-39 0 -64 24t-25 62t25 62.5t64 24.5q37 0 61.5 -25t24.5 -62zM229 636q0 21 -13 35.5t-33 14.5q-21 0 -34.5 -14.5t-13.5 -35.5q0 -22 13.5 -36t34.5 -14q20 0 33 14t13 36z" />
    <glyph glyph-name="ogonek" unicode="&#x2db;" 
d="M245 -184h-42l-98 114l71 20z" />
    <glyph glyph-name="tilde" unicode="&#x2dc;" 
d="M310 655q-7 -50 -24 -76.5t-40 -26.5q-20 0 -62 23q-46 27 -57 27q-10 0 -15.5 -10.5t-13.5 -40.5l-42 10q12 102 61 102q24 0 73 -28q38 -22 49 -22q17 0 28 51z" />
    <glyph glyph-name="hungarumlaut" unicode="&#x2dd;" horiz-adv-x="456" 
d="M390 685l-112 -132h-43l80 152zM227 685l-112 -132h-43l81 152z" />
    <glyph glyph-name="Delta" unicode="&#x394;" horiz-adv-x="500" 
d="M25 -200v1000h450v-1000h-450z" />
    <glyph glyph-name="Omega" unicode="&#x3a9;" horiz-adv-x="472" 
d="M468 651q-13 4 -42 4q-52 0 -52 -63v-119h79l9 -54h-88v-419h-62v419h-63v54h63v124q0 58 29.5 86.5t81.5 28.5q17 0 35 -4zM232 651q-12 4 -41 4q-53 0 -53 -63v-119h79l10 -54h-89v-419h-62v419h-63v54h63v124q0 58 29.5 86.5t81.5 28.5q16 0 36 -4z" />
    <glyph glyph-name="pi" unicode="&#x3c0;" horiz-adv-x="631" 
d="M592 345q0 -158 -76.5 -257t-199.5 -99t-200 99t-77 257t77 257t199 99q124 0 200.5 -99t76.5 -257zM561 345q0 149 -69.5 238.5t-176.5 89.5t-175.5 -89.5t-68.5 -238.5t69.5 -238.5t176.5 -89.5q106 0 175 90t69 238zM435 429q0 -55 -35 -85.5t-94 -30.5h-29v-166h-43
v396h81q55 0 87.5 -30.5t32.5 -83.5zM390 428q0 76 -78 76h-34v-153h31q81 0 81 77z" />
    <glyph glyph-name="endash" unicode="&#x2013;" horiz-adv-x="346" 
d="M310 252h-275v62h275v-62z" />
    <glyph glyph-name="emdash" unicode="&#x2014;" horiz-adv-x="705" 
d="M669 252h-634v62h634v-62z" />
    <glyph glyph-name="quoteleft" unicode="&#x2018;" horiz-adv-x="159" 
d="M118 688l-14 -187h-75l55 195z" />
    <glyph glyph-name="quoteright" unicode="&#x2019;" horiz-adv-x="159" 
d="M130 690l-54 -195l-35 8l13 187h76z" />
    <glyph glyph-name="quotesinglbase" unicode="&#x201a;" horiz-adv-x="159" 
d="M125 99l-55 -195l-35 8l14 187h76z" />
    <glyph glyph-name="quotedblleft" unicode="&#x201c;" horiz-adv-x="305" 
d="M118 688l-14 -187h-75l55 195zM263 688l-14 -187h-75l54 195z" />
    <glyph glyph-name="quotedblright" unicode="&#x201d;" horiz-adv-x="305" 
d="M130 690l-54 -195l-35 8l13 187h76zM276 690l-55 -195l-35 8l14 187h76z" />
    <glyph glyph-name="quotedblbase" unicode="&#x201e;" horiz-adv-x="299" 
d="M125 99l-55 -195l-35 8l14 187h76zM270 99l-55 -195l-34 8l13 187h76z" />
    <glyph glyph-name="dagger" unicode="&#x2020;" horiz-adv-x="447" 
d="M253 587l-19 -114h-22l-18 114v103h59v-103zM404 414h-50l-99 19v19l99 20h50v-58zM192 433l-99 -19h-50v58h50l99 -20v-19zM251 -1l-18 -115h-19l-18 115v311l16 103h22l17 -103v-311z" />
    <glyph glyph-name="daggerdbl" unicode="&#x2021;" horiz-adv-x="460" 
d="M259 587l-18 -114h-22l-18 114v103h58v-103zM410 414h-50l-98 19v19l98 20h50v-58zM199 433l-99 -19h-50v58h50l99 -20v-19zM258 196l-17 -103h-22l-17 103v114l17 103h22l17 -103v-114zM410 34h-50l-98 19v20l98 19h50v-58zM199 53l-99 -19h-50v58h50l99 -19v-20z
M259 -185h-58v103l18 114h22l18 -114v-103z" />
    <glyph glyph-name="bullet" unicode="&#x2022;" horiz-adv-x="366" 
d="M286 348l-17 -107l-86 -16l-86 16l-17 107l17 107l86 15l86 -15z" />
    <glyph glyph-name="ellipsis" unicode="&#x2026;" horiz-adv-x="485" 
d="M441 0h-75v98h75v-98zM279 0h-74v98h74v-98zM118 0h-73v98h73v-98z" />
    <glyph glyph-name="perthousand" unicode="&#x2030;" horiz-adv-x="631" 
d="M592 345q0 -158 -76.5 -257t-199.5 -99t-200 99t-77 257t77 257t199 99q124 0 200.5 -99t76.5 -257zM561 345q0 149 -69.5 238.5t-176.5 89.5t-175.5 -89.5t-68.5 -238.5t69.5 -238.5t176.5 -89.5q106 0 175 90t69 238zM339 327l102 -176l-42 -10l-105 181h-30v-175h-44
v396h76q56 0 89.5 -29t33.5 -79q0 -87 -80 -108zM293 504h-29v-146h27q83 0 83 75q0 71 -81 71z" />
    <glyph glyph-name="guilsinglleft" unicode="&#x2039;" horiz-adv-x="253" 
d="M218 473l-123 -236l119 -230l-48 -12l-140 242l138 236h54z" />
    <glyph glyph-name="guilsinglright" unicode="&#x203a;" horiz-adv-x="253" 
d="M227 236l-138 -236h-52l121 236l-120 231l49 12z" />
    <glyph glyph-name="fraction" unicode="&#x2044;" horiz-adv-x="366" 
d="M383 687l-353 -696l-47 12l352 696z" />
    <glyph glyph-name="trademark" unicode="&#x2122;" horiz-adv-x="539" 
d="M486 395h-37l-12 222l-64 -223h-34l-64 223l-11 -222h-36l18 295h46l64 -235l65 235h47zM207 654h-71v-259h-39v259h-69v36h174z" />
    <glyph glyph-name="partialdiff" unicode="&#x2202;" horiz-adv-x="529" 
d="M376 113l-124 126l65 15l84 -89q25 77 25 179q0 134 -41.5 216t-120.5 82t-119.5 -81t-40.5 -215q0 -135 41 -216.5t120 -81.5q69 0 111 65zM448 117l58 -60l-10 -71l-77 82q-60 -79 -155 -79q-107 0 -167 95t-60 260t60.5 261t167.5 96t167 -95t60 -260q0 -139 -44 -229
z" />
    <glyph glyph-name="product" unicode="&#x220f;" horiz-adv-x="500" 
d="M25 -200v1000h450v-1000h-450z" />
    <glyph glyph-name="summation" unicode="&#x2211;" horiz-adv-x="711" 
d="M693 690l-173 -694h-63l-99 384l-106 -384h-60l-173 685l62 14l144 -604l106 392l-52 198l64 14l145 -604l141 599h64z" />
    <glyph glyph-name="minus" unicode="&#x2212;" horiz-adv-x="500" 
d="M25 -200v1000h450v-1000h-450z" />
    <glyph glyph-name="radical" unicode="&#x221a;" horiz-adv-x="650" 
d="M592 0h-63v706l63 12v-718zM468 651q-13 4 -42 4q-52 0 -52 -63v-119h79l9 -54h-88v-419h-62v419h-63v54h63v124q0 58 29.5 86.5t81.5 28.5q17 0 35 -4zM232 651q-12 4 -41 4q-53 0 -53 -63v-119h79l10 -54h-89v-419h-62v419h-63v54h63v124q0 58 29.5 86.5t81.5 28.5
q16 0 36 -4z" />
    <glyph glyph-name="infinity" unicode="&#x221e;" horiz-adv-x="370" 
d="M322 0h-47l-8 53q-60 -62 -127 -62q-51 0 -84 32.5t-33 93.5q0 153 236 184v43q0 82 -76 82q-55 0 -119 -41l-9 58q73 40 138 40q129 0 129 -134v-349zM259 107v143q-173 -22 -173 -130q0 -35 17.5 -54.5t46.5 -19.5q51 0 109 61z" />
    <glyph glyph-name="integral" unicode="&#x222b;" horiz-adv-x="413" 
d="M363 -22q0 -77 -41.5 -117.5t-119.5 -40.5q-70 0 -142 31l11 59q68 -35 130 -35q99 0 99 102v74q-54 -59 -111 -59q-68 0 -111.5 59t-43.5 177q0 125 52 188t134 63q68 0 143 -30v-471zM300 114v292q-39 18 -79 18q-56 0 -90 -47t-34 -148q0 -90 27.5 -135t72.5 -45
q46 0 103 65z" />
    <glyph glyph-name="approxequal" unicode="&#x2248;" horiz-adv-x="650" 
d="M604 624q0 -19 -12.5 -32.5t-30.5 -13.5q-19 0 -31.5 13.5t-12.5 32.5q0 18 13 31.5t31 13.5t30.5 -13.5t12.5 -31.5zM468 651q-13 4 -42 4q-52 0 -52 -63v-119h79l9 -54h-88v-419h-62v419h-63v54h63v124q0 58 29.5 86.5t81.5 28.5q17 0 35 -4zM232 651q-12 4 -41 4
q-53 0 -53 -63v-119h79l10 -54h-89v-419h-62v419h-63v54h63v124q0 58 29.5 86.5t81.5 28.5q16 0 36 -4zM592 0h-63v473h63v-473z" />
    <glyph glyph-name="notequal" unicode="&#x2260;" horiz-adv-x="377" 
d="M343 194q0 -94 -51 -149.5t-133 -55.5q-76 0 -141 45l11 63q64 -51 131 -51q53 0 85.5 39.5t32.5 105.5q0 145 -169 148h-4l-6 44l162 251h-229l-8 56h310v-46l-164 -256q77 -10 125 -57t48 -137z" />
    <glyph glyph-name="lessequal" unicode="&#x2264;" horiz-adv-x="671" 
d="M607 0h-59v580l-186 -584h-54l-186 584v-580h-56v690h83l188 -603l188 603h82v-690z" />
    <glyph glyph-name="greaterequal" unicode="&#x2265;" horiz-adv-x="498" 
d="M213 -8q-74 0 -115 41t-41 123v534h66v-530q0 -109 95 -109q72 0 152 71v568h66v-690h-49l-10 61q-84 -69 -164 -69z" />
    <glyph glyph-name="lozenge" unicode="&#x25ca;" horiz-adv-x="536" 
d="M484 395h-38l-12 222l-63 -223h-35l-63 223l-12 -222h-35l18 295h46l64 -235l65 235h47zM115 391q-32 0 -65 15l7 36q29 -19 60 -19q20 0 31.5 11t11.5 30q0 32 -45 66q-24 18 -33.5 27t-19 26.5t-9.5 38.5q0 32 20 53t54 21q31 0 52 -13l-6 -35q-20 14 -45 14
q-20 0 -29.5 -10.5t-9.5 -26.5q0 -29 46 -62q32 -23 47 -44t15 -53q0 -33 -22.5 -54t-59.5 -21z" />
    <glyph glyph-name="apple" unicode="&#xf8ff;" horiz-adv-x="694" 
d="M644 -200h-208l-8 14h-163l-8 -14h-207v303q14 0 23 9.5t9 22.5t-9.5 22.5t-22.5 9.5v554h100l30 79h334l29 -79h101v-921zM400 563v-172h15v78h38v14h-38v66h43v14h-58zM184 563v-172h15v79h47v-79h15v172h-15v-79h-47v79h-15zM460 394q8 -4 21 -4q31 0 31 36v137h-16
v-137q0 -22 -16 -22q-10 0 -20 6v-16zM523 323v-46h8v13l7 7l16 -20h9l-19 26l18 20h-10l-21 -24v24h-8zM488 292l10 -15h9l-12 17q10 3 10 15q0 5 -4.5 9.5t-11.5 4.5h-21v-46h8v15h12zM426 276q11 0 17.5 7t6.5 17q0 9 -7 16.5t-17 7.5t-16.5 -7.5t-6.5 -16.5
q0 -10 6.5 -17t16.5 -7zM370 301l-13 22h-9l18 -29v-17h8v17l18 29h-9zM193 323v-46h33v7h-25v13h22v7h-22v12h25v7h-33zM132 323v-46h8v32l25 -32h7v46h-8v-32l-25 32h-7zM241 323l15 -47h8l10 34h1l11 -34h8l14 47h-8l-10 -35h-1l-10 35h-8l-11 -35h-1l-10 35h-8zM327 479
q-12 22 -12 32q0 19 14 19q13 0 13 -19q0 -15 -15 -32zM342 423q-6 -21 -18 -21q-17 0 -17 27q0 18 15 33zM488 299h-12v17h11q10 0 10 -8q0 -9 -9 -9zM426 283q-15 0 -15 17q0 6 4.5 11.5t10.5 5.5q7 0 11.5 -5.5t4.5 -11.5q0 -7 -4.5 -12t-11.5 -5zM349 438l-16 31
q23 21 23 42q0 12 -7 21.5t-20 9.5q-12 0 -20 -9.5t-8 -21.5q0 -13 14 -39q-23 -18 -23 -45q0 -17 9 -28t22 -11q17 0 27 24h1l12 -24l11 8l-16 30q10 23 13 39l-13 3q-2 -9 -9 -30z" />
    <glyph glyph-name="fi" unicode="&#xfb01;" horiz-adv-x="414" 
d="M368 624q0 -19 -12.5 -32.5t-30.5 -13.5t-31 13.5t-13 32.5q0 18 13 31.5t31 13.5t30.5 -13.5t12.5 -31.5zM232 651q-12 4 -41 4q-53 0 -53 -63v-119h79l10 -54h-89v-419h-62v419h-63v54h63v124q0 58 29.5 86.5t81.5 28.5q16 0 36 -4zM357 0h-63v473h63v-473z" />
    <glyph glyph-name="fl" unicode="&#xfb02;" horiz-adv-x="414" 
d="M357 0h-63v706l63 12v-718zM232 651q-12 4 -41 4q-53 0 -53 -63v-119h79l10 -54h-89v-419h-62v419h-63v54h63v124q0 58 29.5 86.5t81.5 28.5q16 0 36 -4z" />
    <glyph glyph-name="NUL" horiz-adv-x="0" 
 />
    </font>
</defs>
</svg>
