<svg xmlns:svg="http://www.w3.org/2000/svg" xmlns="http://www.w3.org/2000/svg" width="20.844648" height="32" viewBox="0 0 20.844648 32.000001" version="1.1"><g transform="translate(-9.6118356e-7,-688.29999)"><rect width="20.844648" height="32" x="9.6118356e-07" y="688.29999" fill="#f4f5f7"/><path d="m3.9983351 694.57915-0.073303-0.008-0.00351-0.43675-0.00351-0.43674 0.034369-0.0131c0.051859-0.0197 0.3348645-0.0157 0.4160742 0.006 0.2294038 0.0611 0.3482845 0.22263 0.333365 0.45306-0.017135 0.26464-0.2027427 0.41806-0.5302159 0.43826-0.054977 0.003-0.1329446 0.002-0.1732611-0.002zm0.8451291 2.20301c0.1147571-0.17279 0.2147274-0.31214 0.2221568-0.30967 0.00743 0.002 0.1046897 0.14235 0.2161348 0.31084l0.2026267 0.30633 0.2863647 0c0.2551879 0 0.2868249-0.002 0.2905878-0.0219 0.00232-0.0121-0.1520078-0.2568-0.3429558-0.54387l-0.3471789-0.52194 0.021534-0.0416c0.011844-0.0229 0.1685192-0.26214 0.3481679-0.53164 0.2095642-0.31438 0.3237873-0.49742 0.3186912-0.5107-0.00683-0.0178-0.047033-0.0207-0.2872928-0.0207-0.215173 0-0.2834365 0.004-0.2971397 0.0178-0.00978 0.01-0.1046733 0.15069-0.2108646 0.31313-0.1061909 0.16244-0.1967385 0.29538-0.2012166 0.29542-0.00448 0.00004-0.096424-0.13298-0.2043242-0.29559l-0.1961818-0.29565 0.091038-0.0437c0.2227587-0.10686 0.3693368-0.26815 0.4403623-0.48456 0.033772-0.1029 0.053278-0.13101 0.053278-0.30654 0-0.23194-0.039408-0.31664-0.147543-0.47756-0.1466229-0.2182-0.3851364-0.33068-0.7727397-0.36441-0.1843041-0.016-0.6381576 0.002-0.8350889 0.0332l-0.099958 0.0158 0 1.35277 0 1.35277 0.2598918 0 0.2598917 0 0.00666-0.49979 0.00666-0.49979 0.088122-0.004 0.088122-0.004 0.3229281 0.48831c0.2027145 0.30653 0.3206742 0.49693 0.3168745 0.51146-0.00333 0.0127-0.1599058 0.25583-0.3479478 0.54021-0.2699786 0.40831-0.3387051 0.52092-0.3267301 0.53535 0.011954 0.0144 0.073727 0.0183 0.2917895 0.0183l0.2766242 0 0.2086495-0.31417zm-0.5385901 1.30676c-0.9823547-0.1363-1.809423-0.73224-2.2320878-1.60832-0.1990921-0.41268-0.2893017-0.80031-0.290933-1.25017-0.0017-0.46738 0.086045-0.85222 0.2909104-1.27599 0.1593238-0.32956 0.2948562-0.51959 0.5589457-0.78368 0.2590446-0.25904 0.4584295-0.40136 0.7868673-0.56166 0.3970812-0.19379 0.8045519-0.28668 1.2594751-0.28711 1.3337701-0.001 2.4843076 0.9028 2.811031 2.20882 0.059828 0.23915 0.073087 0.36133 0.073751 0.67963 0.000702 0.33582-0.01417 0.4639-0.085372 0.73529-0.1053921 0.40171-0.3093285 0.80168-0.5628708 1.10395-0.1178647 0.14051-0.3250668 0.34403-0.4572797 0.44915-0.3832159 0.30469-0.9099289 0.52364-1.4172993 0.58916-0.1973542 0.0255-0.5548843 0.0259-0.7351371 0.00093z" fill="#f3bb70"/><path d="m9.1220496 693.4272c-0.00366-0.01-0.00498-0.098-0.00292-0.19661l0.00374-0.17925 5.1378604 0 5.137859 0 0 0.19325 0 0.19326-5.134939 0.003c-4.206878 0.003-5.1361428 0.00022-5.1415974-0.014zm0 1.99916c-0.00366-0.01-0.00498-0.098-0.00292-0.1966l0.00374-0.17925 5.1378604 0 5.137859 0 0 0.19325 0 0.19325-5.134939 0.003c-4.206878 0.003-5.1361428 0.00023-5.1415974-0.014zm0 2.0125c-0.00366-0.01-0.00498-0.098-0.00292-0.1966l0.00374-0.17926 5.1378604 0 5.137859 0 0 0.19326 0 0.19325-5.134939 0.003c-4.206878 0.003-5.1361428 0.00022-5.1415974-0.014zm-7.5301985 3.15867c-0.00366-0.01-0.00497-0.098-0.00292-0.19659l0.00374-0.17925 8.9029579 0 8.902957 0 0 0.19325 0 0.19325-8.900039 0.003c-7.296869 0.003-8.9012396 0.00023-8.9066956-0.014zm0 14.60725c-0.00366-0.01-0.00497-0.098-0.00292-0.19659l0.00374-0.17925 8.9029579 0 8.902957 0 0 0.19325 0 0.19325-8.900039 0.003c-7.296869 0.003-8.9012396 0-8.9066956-0.014zm9.8492459 2.70558c-0.0037-0.01-0.005-0.101-0.0029-0.20327l0.0037-0.18594 3.978343 0 3.978342 0 0 0.19991 0 0.19992-3.97542 0.003c-3.251676 0.003-3.976631 0-3.982068-0.014z" fill="#d0d8dc"/><path d="m0.0000010102083 689.5428 0-1.24281 10.4223249897917 0 10.422324 0 0 1.24281 0 1.24282-10.422324 0-10.4223249897917 0z" fill="#758d9f"/></g></svg>