<?xml version="1.0" encoding="UTF-8" standalone="no"?>
<!-- Created with Inkscape (http://www.inkscape.org/) -->

<svg
   xmlns:dc="http://purl.org/dc/elements/1.1/"
   xmlns:cc="http://creativecommons.org/ns#"
   xmlns:rdf="http://www.w3.org/1999/02/22-rdf-syntax-ns#"
   xmlns:svg="http://www.w3.org/2000/svg"
   xmlns="http://www.w3.org/2000/svg"
   xmlns:sodipodi="http://sodipodi.sourceforge.net/DTD/sodipodi-0.dtd"
   xmlns:inkscape="http://www.inkscape.org/namespaces/inkscape"
   width="6.824122mm"
   height="9.0311089mm"
   viewBox="0 0 24.179962 31.99999"
   id="svg2"
   version="1.1"
   inkscape:version="0.91 r13725"
   sodipodi:docname="clipboard.svg">
  <defs
     id="defs4" />
  <sodipodi:namedview
     id="base"
     pagecolor="#ffffff"
     bordercolor="#666666"
     borderopacity="1.0"
     inkscape:pageopacity="0.0"
     inkscape:pageshadow="2"
     inkscape:zoom="175.71609"
     inkscape:cx="17.767517"
     inkscape:cy="14.461483"
     inkscape:document-units="px"
     inkscape:current-layer="layer6"
     showgrid="false"
     fit-margin-top="0"
     fit-margin-left="0"
     fit-margin-right="0"
     fit-margin-bottom="0"
     inkscape:showpageshadow="false"
     showguides="true"
     inkscape:guide-bbox="true"
     guidetolerance="10000"
     gridtolerance="10"
     inkscape:window-width="1280"
     inkscape:window-height="699"
     inkscape:window-x="0"
     inkscape:window-y="1"
     inkscape:window-maximized="1" />
  <metadata
     id="metadata7">
    <rdf:RDF>
      <cc:Work
         rdf:about="">
        <dc:format>image/svg+xml</dc:format>
        <dc:type
           rdf:resource="http://purl.org/dc/dcmitype/StillImage" />
        <dc:title></dc:title>
      </cc:Work>
    </rdf:RDF>
  </metadata>
  <g
     inkscape:groupmode="layer"
     id="layer6"
     inkscape:label="bottom"
     style="display:inline"
     transform="translate(0,-946.00005)">
    <rect
       style="fill:#a97d50;fill-opacity:1;fill-rule:nonzero;stroke:none;stroke-width:3;stroke-linejoin:miter;stroke-miterlimit:4;stroke-dasharray:none;stroke-opacity:1"
       id="rect4420"
       width="24.179964"
       height="30.929583"
       x="0"
       y="947.07037"
       ry="2.8551056" />
    <rect
       style="display:inline;fill:#d1d2d4;fill-opacity:1;fill-rule:nonzero;stroke:none;stroke-width:3;stroke-linejoin:miter;stroke-miterlimit:4;stroke-dasharray:none;stroke-opacity:1"
       id="rect4423-5"
       width="19.640337"
       height="26.431263"
       x="2.7194047"
       y="948.93799"
       ry="0" />
    <rect
       style="display:inline;fill:#ffffff;fill-opacity:1;fill-rule:nonzero;stroke:none;stroke-width:3;stroke-linejoin:miter;stroke-miterlimit:4;stroke-dasharray:none;stroke-opacity:1"
       id="rect4423"
       width="19.640337"
       height="26.431263"
       x="1.9557347"
       y="949.68939"
       ry="0" />
    <g
       id="flowRoot4588"
       style="font-style:normal;font-weight:normal;font-size:40px;line-height:125%;font-family:sans-serif;letter-spacing:0px;word-spacing:0px;fill:#6d1605;fill-opacity:1;stroke:none;stroke-width:1px;stroke-linecap:butt;stroke-linejoin:miter;stroke-opacity:1"
       transform="matrix(0.03816759,0,0,0.03816759,10.714346,955.32091)">
      <path
         style="font-size:50.00000381px;line-height:120.00000477%;fill:#6d1605;fill-opacity:1"
         d="m 212.41113,210.40545 c 3.94987,-8.97833 8.87776,-17.60294 15.20997,-25.12207 1.24319,-1.35159 2.58438,-2.89484 4.56705,-2.97622 1.34263,0.0715 3.94591,-1.29467 4.60195,0.0679 -0.93785,1.26949 -2.29429,2.20245 -3.31163,3.42658 -6.5344,7.23255 -11.63603,15.69265 -15.55434,24.59505 -1.03453,2.19035 -1.68037,4.61214 -3.07159,6.60705 -1.52863,0.79994 -3.39036,0.62277 -5.05333,0.43641 -1.5863,-0.71909 -2.12041,-2.66454 -3.22602,-3.93272 -1.35771,-2.04204 -3.13064,-3.75468 -4.62958,-5.67765 -1.12904,-1.79548 1.32265,-3.19329 2.7172,-3.75328 1.87764,-0.53856 3.53781,0.99119 4.79775,2.17705 1.17059,1.2394 2.10011,2.68236 2.95257,4.15191 z"
         id="path4166"
         inkscape:connector-curvature="0" />
    </g>
    <g
       id="flowRoot4588-0"
       style="font-style:normal;font-weight:normal;font-size:46.65987015px;line-height:125%;font-family:sans-serif;letter-spacing:0px;word-spacing:0px;display:inline;fill:#6d1605;fill-opacity:1;stroke:none;stroke-width:1px;stroke-linecap:butt;stroke-linejoin:miter;stroke-opacity:1"
       transform="matrix(0.03271984,0,0,0.03271984,18.409733,964.50027)">
      <path
         inkscape:connector-curvature="0"
         id="path4169"
         style="font-size:58.32484436px;line-height:120.00000477%;fill:#6d1605;fill-opacity:1"
         d="m 12.586719,33.378143 q 2.620061,-5.980575 5.610349,-11.420051 3.018766,-5.467954 6.208406,-10.08154 3.759219,-5.4109963 5.923617,-7.8032263 1.395468,-1.5378621 2.620061,-2.5346245 0.711974,-0.5695786 2.249836,-0.85436788 3.730739,-0.68349427232 5.211644,-0.68349427232 0.655015,0 0.655015,0.45566284232 0,0.42718392 -0.655015,1.02524141 -5.695786,5.0692492 -11.96115,14.4957747 -6.236885,9.426525 -10.537204,20.020686 -1.623298,3.958571 -2.278314,4.869897 -0.626536,0.882846 -3.98705,0.882846 -2.1928771,0 -2.7624557,-0.427184 Q 8.3433587,40.89658 6.8909334,38.618265 4.3847877,34.830568 1.508416,31.783323 -9.6716732e-4,30.188503 -9.6716732e-4,29.334135 q 0,-1.196115 1.68025676732,-2.335272 1.6802567,-1.167636 2.762456,-1.167636 1.5093832,0 3.6168238,1.708735 2.1359196,1.680257 4.5281496,5.838181 z" />
    </g>
    <g
       id="flowRoot4588-2"
       style="font-style:normal;font-weight:normal;font-size:46.65987015px;line-height:125%;font-family:sans-serif;letter-spacing:0px;word-spacing:0px;display:inline;fill:#6d1605;fill-opacity:1;stroke:none;stroke-width:1px;stroke-linecap:butt;stroke-linejoin:miter;stroke-opacity:1"
       transform="matrix(0.03271984,0,0,0.03271984,18.409733,966.74507)">
      <path
         inkscape:connector-curvature="0"
         id="path4172"
         style="font-size:58.32484436px;line-height:120.00000477%;fill:#6d1605;fill-opacity:1"
         d="m 12.586719,33.378143 q 2.620061,-5.980575 5.610349,-11.420051 3.018766,-5.467954 6.208406,-10.08154 3.759219,-5.4109963 5.923617,-7.8032263 1.395468,-1.5378621 2.620061,-2.5346245 0.711974,-0.5695786 2.249836,-0.85436788 3.730739,-0.68349427232 5.211644,-0.68349427232 0.655015,0 0.655015,0.45566284232 0,0.42718392 -0.655015,1.02524141 -5.695786,5.0692492 -11.96115,14.4957747 -6.236885,9.426525 -10.537204,20.020686 -1.623298,3.958571 -2.278314,4.869897 -0.626536,0.882846 -3.98705,0.882846 -2.1928771,0 -2.7624557,-0.427184 Q 8.3433587,40.89658 6.8909334,38.618265 4.3847877,34.830568 1.508416,31.783323 -9.6716732e-4,30.188503 -9.6716732e-4,29.334135 q 0,-1.196115 1.68025676732,-2.335272 1.6802567,-1.167636 2.762456,-1.167636 1.5093832,0 3.6168238,1.708735 2.1359196,1.680257 4.5281496,5.838181 z" />
    </g>
    <g
       id="flowRoot4588-5"
       style="font-style:normal;font-weight:normal;font-size:46.65987015px;line-height:125%;font-family:sans-serif;letter-spacing:0px;word-spacing:0px;display:inline;fill:#6d1605;fill-opacity:1;stroke:none;stroke-width:1px;stroke-linecap:butt;stroke-linejoin:miter;stroke-opacity:1"
       transform="matrix(0.03271984,0,0,0.03271984,18.409733,969.00452)">
      <path
         inkscape:connector-curvature="0"
         id="path4175"
         style="font-size:58.32484436px;line-height:120.00000477%;fill:#6d1605;fill-opacity:1"
         d="m 12.586719,33.378143 q 2.620061,-5.980575 5.610349,-11.420051 3.018766,-5.467954 6.208406,-10.08154 3.759219,-5.4109963 5.923617,-7.8032263 1.395468,-1.5378621 2.620061,-2.5346245 0.711974,-0.5695786 2.249836,-0.85436788 3.730739,-0.68349427232 5.211644,-0.68349427232 0.655015,0 0.655015,0.45566284232 0,0.42718392 -0.655015,1.02524141 -5.695786,5.0692492 -11.96115,14.4957747 -6.236885,9.426525 -10.537204,20.020686 -1.623298,3.958571 -2.278314,4.869897 -0.626536,0.882846 -3.98705,0.882846 -2.1928771,0 -2.7624557,-0.427184 Q 8.3433587,40.89658 6.8909334,38.618265 4.3847877,34.830568 1.508416,31.783323 -9.6716732e-4,30.188503 -9.6716732e-4,29.334135 q 0,-1.196115 1.68025676732,-2.335272 1.6802567,-1.167636 2.762456,-1.167636 1.5093832,0 3.6168238,1.708735 2.1359196,1.680257 4.5281496,5.838181 z" />
    </g>
    <path
       style="display:inline;fill:#d1d2d4;fill-opacity:1;fill-rule:nonzero;stroke:none;stroke-width:3;stroke-linejoin:miter;stroke-miterlimit:4;stroke-dasharray:none;stroke-opacity:1"
       d="m 18.022134,972.22743 3.573949,0 0,0 -3.573949,3.89265 z"
       id="rect4451"
       inkscape:connector-curvature="0"
       sodipodi:nodetypes="ccccc" />
    <path
       id="rect4260-3-7"
       style="display:inline;fill:#737244;fill-opacity:1;fill-rule:nonzero;stroke:none;stroke-width:3;stroke-linejoin:miter;stroke-miterlimit:4;stroke-dasharray:none;stroke-opacity:1"
       d="m 18.922234,951.58661 0,2.06951 c 0,0.1065 -0.08252,0.19224 -0.185025,0.19224 l -0.525859,0 c -0.102504,0 -0.185025,-0.0857 -0.185025,-0.19224 l 0,-2.06951 c 0,-0.1065 0.08252,-0.19224 0.185025,-0.19224 l 0.525859,0 c 0.102504,0 0.185025,0.0857 0.185025,0.19224 z m -1.482713,0.5868 2.069518,0 c 0.106498,0 0.192235,0.0825 0.192235,0.18502 l 0,0.52586 c 0,0.10251 -0.08574,0.18503 -0.192235,0.18503 l -2.069518,0 c -0.106499,0 -0.192236,-0.0825 -0.192236,-0.18503 l 0,-0.52586 c 0,-0.1025 0.08574,-0.18502 0.192236,-0.18502 z"
       inkscape:connector-curvature="0" />
    <g
       transform="matrix(0.03271984,0,0,0.03271984,-1.1800237e-7,945.99996)"
       style="display:inline"
       id="g4584">
      <rect
         y="265.43222"
         x="114.38808"
         height="196.00726"
         width="486.08096"
         id="rect4485"
         style="fill:none;fill-opacity:1;fill-rule:nonzero;stroke:#5c5c5e;stroke-width:7.79645014;stroke-linejoin:miter;stroke-miterlimit:4;stroke-dasharray:none;stroke-opacity:1" />
      <path
         inkscape:connector-curvature="0"
         d="m 111.82306,294.10926 490.00003,0 0,8 -490.00003,0 z m 403.44597,-27.21374 8,0 0,191.00295 -8,0 z m -80.82709,1.16839 8,0 0,191.00295 -8,0 z m -80.93336,-0.84967 8,0 0,191.00295 -8,0 z m -81.03955,1.48694 8,0 0,191.00295 -8,0 z m -81.03144,0.026 8,0 0,191.00295 -8,0 z"
         style="display:inline;fill:#5c5c5e;fill-opacity:1;fill-rule:nonzero;stroke:none;stroke-width:8;stroke-linejoin:miter;stroke-miterlimit:4;stroke-dasharray:none;stroke-opacity:1"
         id="rect4535" />
    </g>
    <rect
       style="display:inline;fill:#6d6e72;fill-opacity:1;fill-rule:nonzero;stroke:none;stroke-width:8;stroke-linejoin:miter;stroke-miterlimit:4;stroke-dasharray:none;stroke-opacity:1"
       id="rect4540"
       width="13.037228"
       height="0.33821759"
       x="4.1287737"
       y="962.89313" />
    <rect
       style="display:inline;fill:#6d6e72;fill-opacity:1;fill-rule:nonzero;stroke:none;stroke-width:8;stroke-linejoin:miter;stroke-miterlimit:4;stroke-dasharray:none;stroke-opacity:1"
       id="rect4540-4"
       width="13.037228"
       height="0.33821759"
       x="4.1287746"
       y="965.15131" />
    <rect
       style="display:inline;fill:#6d6e72;fill-opacity:1;fill-rule:nonzero;stroke:none;stroke-width:8;stroke-linejoin:miter;stroke-miterlimit:4;stroke-dasharray:none;stroke-opacity:1"
       id="rect4540-9"
       width="13.037228"
       height="0.33821759"
       x="4.1287746"
       y="967.38788" />
    <rect
       style="display:inline;fill:#6d6e72;fill-opacity:1;fill-rule:nonzero;stroke:none;stroke-width:8;stroke-linejoin:miter;stroke-miterlimit:4;stroke-dasharray:none;stroke-opacity:1"
       id="rect4540-7"
       width="13.037228"
       height="0.33821759"
       x="4.1287746"
       y="969.6358" />
    <g
       transform="matrix(0.03271984,0,0,0.03271984,4.5815267e-7,945.99996)"
       style="display:inline"
       id="g4395">
      <path
         inkscape:connector-curvature="0"
         d="m 288.69006,29.711874 172,0 0,84.199646 -172,0 z m 1.36994,70.251291 169.2601,0 c 8.13977,0 14.69272,6.552955 14.69272,14.692715 0,8.13977 -6.55295,14.69272 -14.69272,14.69272 l -169.2601,0 c -8.13977,0 -14.69272,-6.55295 -14.69272,-14.69272 0,-8.13976 6.55295,-14.692715 14.69272,-14.692715 z M 318.95706,0 430.42307,0 c 16.76791,0 30.26699,13.499081 30.26699,30.266998 0,16.767917 -13.49908,30.266999 -30.26699,30.266999 l -111.46601,0 c -16.76792,0 -30.267,-13.499082 -30.267,-30.266999 C 288.69006,13.499081 302.18914,0 318.95706,0 Z m -43.35456,112.00771 16.00382,-69.320149 12.64073,2.918342 -16.00382,69.320147 z m 182.14443,-69.480942 16.00381,69.320142 -12.64073,2.91835 -16.00382,-69.320148 z"
         style="display:inline;fill:#58585a;fill-opacity:1;fill-rule:nonzero;stroke:none;stroke-width:3;stroke-linejoin:miter;stroke-miterlimit:4;stroke-dasharray:none;stroke-opacity:1"
         id="rect4316"
         transform="translate(3.5868313e-6,0)" />
      <path
         d="m 337.9479,95.447266 73.48434,0 c 3.30069,0 5.95793,2.65724 5.95793,5.957934 l 0,0.60717 c 0,3.3007 -2.65724,5.95794 -5.95793,5.95794 l -73.48434,0 c -3.3007,0 -5.95794,-2.65724 -5.95794,-5.95794 l 0,-0.60717 c 0,-3.300694 2.65724,-5.957934 5.95794,-5.957934 z m 0,-50.229939 73.48434,0 c 3.30069,0 5.95793,2.657241 5.95793,5.957939 l 0,0.607168 c 0,3.300698 -2.65724,5.957939 -5.95793,5.957939 l -73.48434,0 c -3.3007,0 -5.95794,-2.657241 -5.95794,-5.957939 l 0,-0.607168 c 0,-3.300698 2.65724,-5.957939 5.95794,-5.957939 z m 0,24.984837 73.48434,0 c 3.30069,0 5.95793,2.657241 5.95793,5.957939 l 0,0.607167 c 0,3.300698 -2.65724,5.957939 -5.95793,5.957939 l -73.48434,0 c -3.3007,0 -5.95794,-2.657241 -5.95794,-5.957939 l 0,-0.607167 c 0,-3.300698 2.65724,-5.957939 5.95794,-5.957939 z m 0,-50.736994 73.48434,0 c 3.30069,0 5.95793,2.657241 5.95793,5.957939 l 0,0.607167 c 0,3.300699 -2.65724,5.957939 -5.95793,5.957939 l -73.48434,0 c -3.3007,0 -5.95794,-2.65724 -5.95794,-5.957939 l 0,-0.607167 c 0,-3.300698 2.65724,-5.957939 5.95794,-5.957939 z"
         style="display:inline;fill:#a8a9ad;fill-opacity:1;fill-rule:nonzero;stroke:none;stroke-width:3;stroke-linejoin:miter;stroke-miterlimit:4;stroke-dasharray:none;stroke-opacity:1"
         id="rect4281-8"
         inkscape:connector-curvature="0" />
    </g>
  </g>
</svg>
